<?xml version="1.0" encoding="UTF-8"?>
<svg id="Layer_1" xmlns="http://www.w3.org/2000/svg" version="1.1" viewBox="0 0 453.82 413.32">
  <!-- Generator: Adobe Illustrator 29.5.1, SVG Export Plug-In . SVG Version: 2.1.0 Build 141)  -->
  <defs>
    <style>
      .st0 {
        fill: #fff;
      }

      .st1 {
        fill: none;
      }

      .st2 {
        fill: #f4b7d3;
      }

      .st3 {
        fill: #010101;
      }
    </style>
  </defs>
  <path class="st0" d="M166.79,112.07c-17.08-12.39-40.11-20.58-61.23-21.19-11.45-.33-23.63,2.52-32.14,10.61-9.38,8.92-12.27,22.3-10.61,34.78.7,5.3,2,9.32,6.37,12.7,3.67,2.83,9.5,4.8,14.1,2.89,10.46-4.34,21.04-8.48,32.02-11.3,2.65-.68,5.32-1.29,8-1.79.45-.08,4.33-.72,3.23-.57-.86.12,2-.2,2.35-.23,5.36-.48,10.72-.46,16.07.1-1.57-.16-1.62-.27-.04.06,1.18.25,2.35.47,3.52.75,2.11.5,4.19,1.1,6.23,1.81.91.31,1.8.66,2.7,1-2.9-1.09.14.12.73.41,1.92.94,3.79,1.98,5.6,3.13,1,.63,1.95,1.33,2.92,1.99,2.02,1.37-2.55-2.39.57.54,1.52,1.42,2.89,3.06,4.42,4.45,1.67,1.52-1.19-1.89.06-.01.64.96,1.32,1.9,1.92,2.89.48.8.9,1.62,1.36,2.43,2.15,3.83-.94-2.85.59,1.31,2.82,7.62,9.34,12.71,17.74,11.58,7.93-1.06,13.94-7.77,14.02-15.88.12-11.12-6.73-20.64-13.44-28.84-7.19-8.79-15.84-16.45-24.71-23.5-9.8-7.79-19.96-15.22-30.91-21.33-8.91-4.97-18.65-9.68-29.01-10.1-8.46-.34-16.55,7.68-16.17,16.17.42,9.37,7.12,15.4,16.17,16.17,3.61.31-3.99-.78-1.31-.21.9.19,1.8.32,2.7.51,2.06.44,4.09.99,6.11,1.58,4.92,1.45,9.74,3.22,14.49,5.13,1.14.46,5.43,1.41,1.11.44,1.35.3,2.82,1.23,4.08,1.8,2.45,1.1,4.88,2.24,7.29,3.42,5.7,2.77,11.31,5.73,16.82,8.88s10.74,6.38,15.89,9.91c2.14,1.46,4.22,2.99,6.31,4.51,2.33,1.71-2.63-2.14.9.73,1.05.85,2.08,1.72,3.1,2.61,1.9,1.65,3.74,3.37,5.49,5.19.8.84,1.55,1.71,2.34,2.56,2.85,3.07-1.39-2.29-.02-.12.91,1.44,1.82,3.68,2.94,4.9-2.52-2.73-1.01-3.28-.53-.92.73,3.6-.3-4-.09-1.47l11.87-15.59c-5.3,1.3-10.37,3.43-15.63,4.85-1.28.35-2.91.42-4.1.97-1.9.88,2.96.1,1-.09-.43-.04-1.1.02-1.53.09-2.45.39,1,.21,1.58.36-.84-.2-1.45-.77.46.29.68.38,3.29,2.66,2.16.88-.65-1.03-2.04-2.11-2.85-2.98-5.94-6.44-11.81-13.01-19.72-17.1s-16.68-6.39-25.65-6.52c-15.77-.24-44.93,8.75-38.71,30.07,1.8,6.17,6.33,10.24,11.09,14.14,1.9,1.56,3.55,3.51,5.45,5.02,1.25.99-1.09-1.39-1.12-1.43,1.37,2.15-.38-1.26-.46-1.53.44,1.42-.18,1.55-.14-1.7.01-.98,1.05-3.23.15-1.35-1.28,2.69.7-.8.5-.94.09.06-1.21,2.2-1.3,2.34-.72,1.18-1.52,2.3-2.34,3.41-1.2,1.63-2.61,3.17-3.55,4.97-7.47,14.31,6.11,28.89,20.99,23.96,8.49-2.81,13.44-11.02,11.29-19.89-3.1-12.86-10.12-25.19-19.92-34.13-12.13-11.07-31.7-19.6-44.91-4.82-20.93,23.42-.6,61.32,26.81,67.65,11.19,2.58,24.21-7.65,19.89-19.89-7.48-21.2-27.26-32.28-40.95-48.83-5.59-6.75-17.13-5.7-22.87,0-11.08,11-9.25,28.75-5.32,42.56,3.04,10.67,7.57,21.94,13.45,31.38,15.76,25.28,40.58,46.93,66.73,60.83,7.17,3.81,15.84,2.34,20.86-4.16,4.43-5.73,5.09-16.27-1.26-21.23-2.13-1.66-3.96-3.51-5.7-5.59,1.73,2.06.65.81-.28-.66-.68-1.05-1.31-2.14-1.92-3.24s-1.21-2.28-1.77-3.45c-.38-.79-.75-1.59-1.11-2.4.66,1.6.77,1.86.33.76-1.04-2.8-2.11-5.57-3.03-8.41-3.51-10.82-5.86-21.96-9.12-32.84-6.63,6.63-13.26,13.26-19.89,19.89-1.59-.67-.49-.19.42.27s1.87.91,2.79,1.4c2.08,1.09,4.11,2.26,6.09,3.52,1.76,1.11,3.48,2.29,5.16,3.53,2.11,1.56-1.58-1.34.42.36.99.84,1.99,1.68,2.96,2.55,3.1,2.8,5.95,5.83,8.64,9.01.61.72,1.38,1.78.36.41.78,1.05,1.52,2.11,2.25,3.19,1.31,1.95,2.52,3.95,3.68,5.99,4.19,7.35,14.84,10.5,22.12,5.8,8.08-5.21,9.42-13.79,5.8-22.12-3.89-8.96-7.48-17.27-10.93-27.47-1.65-4.87-3.11-9.8-4.3-14.81-1.28-5.42-1.93-9.53-2.28-13.57-8.11,4.65-16.22,9.31-24.33,13.96-1.98-1.52,1.97,1.7,2.4,2.07,1.22,1.06,2.42,2.16,3.6,3.28,2.54,2.43,4.96,4.98,7.25,7.65,2.99,3.5,6.93,9.33,10.26,15.45,3.85,7.08,13.04,9.63,20.19,6.62,6.82-2.88,12.25-11.52,9.36-19.08-6.01-15.71-12.01-31.43-18.02-47.14-9.01,5.24-18.02,10.49-27.03,15.73,18.28,15.49,36.56,30.99,54.85,46.48,6.45,5.46,16.63,6.8,22.87,0s6.24-16.32,0-22.87c-10.75-11.27-21.5-22.54-32.25-33.81l-15.73,27.03c27.54,4.38,55.09,8.76,82.63,13.15v-31.18c-1.11.41-2.25.75-3.41,1.01,1.09-.03,1.05-.02-.1.04-.81.07-5.61-.45-3.65-.06l9.66,23.75c.69-1.03,4.99-6.59,2.03-2.93,1.49-1.84,2.96-3.68,4.49-5.49,3.9-4.64,7.95-9.17,12.05-13.63,7.13-7.75,14.42-15.43,22.17-22.58,13.3-12.28-4.23-35.77-19.59-25.4-18.35,12.38-35.15,27.94-54.95,38.03l22.12,22.12c4.53-6.42,7.71-13.53,11.51-20.37,3.54-6.37,7.58-11.65,9.34-18.9.59-2.42,1.01-4.89,1.51-7.33.29-1.41.59-2.83.96-4.22.15-.57.33-1.13.49-1.69.11-.36.23-.72.36-1.08.31-.85.25-.7-.19.44.19.06-.9,1.69.12.1.08-.12-2.22,2.7-1.05,1.48,1.11-1.15-1.62,1.31-1.69,1.29.13.03,1.23-.82,1.47-.95,2-1.09,3.97-2.19,6.04-3.16,1.22-.57,4.12-1.79,1.17-.57,1.2-.49,2.4-.98,3.61-1.45,2.9-1.13,5.82-2.21,8.76-3.25,4.96-1.76,9.95-3.41,14.95-5.06,1.9-.63,3.78-1.3,5.69-1.89,1.33-.41,2.7-.64,4.03-1.02,1.77-.5-.51.06-.81.08.95-.05,1.9-.15,2.86-.18,1.71-.05,3.42,0,5.12.14.74.06,1.48.12,2.22.21-.36-.05-2.36-.51-.57,0,3.47.98,6.96,1.58,10.38,2.78.73.26,1.46.52,2.18.8.1.04,2.43,1.03.93.36s.8.4.88.44c.69.34,1.38.67,2.06,1.02,3.09,1.58,6.09,3.35,8.94,5.33.59.41,1.17.82,1.74,1.25-.1-.07-1.73-1.49-.7-.5.87.84,1.71,1.67,2.56,2.54,1.99,2.04-1.35-2.23.25.34.76,1.23,1.57,2.42,2.29,3.67,1.43,2.5,2.68,5.09,3.84,7.73-1.14-2.59.04.21.43,1.27.64,1.73,1.24,3.48,1.8,5.25.81,2.56,1.53,5.16,2.16,7.77.29,1.23.57,2.47.81,3.71.16.79.28,1.58.44,2.37.55,2.75-.29-.87-.08-.94-.06.02.26,2.78.29,3.06.27,3.05-.64-.06.3-.7-.89.6-1.83,6.62-2.28,7.87s-.97,2.47-1.45,3.71c1.26-3.26-.45,1.01-.8,1.78-1.14,2.56-2.33,5.11-3.49,7.66-1.38,3.04-2.72,6.09-3.97,9.19-.23.56-1.53,3.55-.77,1.97.7-1.44-1.37,2.1-1.68,2.78-.73,1.59.85-1.55,1.08-1.39-.01,0-.84.9-.92.95-2.57,1.79,1.55-.84.54-.32-2.15,1.1-4.25,2.73-6.26,4.08-5.76,3.88-11.16,7.86-17.38,11.03s-12.75,5.96-19.19,8.81c-13.58,6-27.33,12.59-37.71,23.52-5.58,5.87-6.23,14.8-1.26,21.23,4.61,5.97,14.18,8.74,20.86,4.16,1.8-1.23,3.65-2.25,5.58-3.25,1.44-.74,1.25-.48-.12.01,1.1-.39,2.19-.82,3.3-1.2,4.37-1.5,8.85-2.69,13.3-3.93,9.24-2.57,18.95-5.36,26.94-10.84-6.53-8.47-13.06-16.93-19.59-25.4-9.7,8.32-23.43,16.32-35.76,23.75-11.05,6.66-21.05,14.19-31.13,22.22-1.43,1.14.35-.27.53-.41-.55.42-1.1.84-1.65,1.25-1.09.82-2.19,1.63-3.3,2.43-2.25,1.61-4.55,3.18-6.94,4.59-1.09.65-2.48,1.11-3.48,1.88-1.49,1.15,1.49-.97,1.54-.61,0,.05-1.21.43-1.31.45-.56.12-3.76.83-1.79.51,1.77-.29-2.37.08-3.2.07-1.42-.01-3.91-.31-1,.14-1.33-.2-2.64-.47-3.95-.79-1.55-.38-3.07-.85-4.57-1.38-.65-.23-1.3-.49-1.95-.72,1.46.53,1.37.63,0-.05-5.55-2.73-10.77-5.95-15.8-9.55-.83-.59-1.66-1.2-2.48-1.81-.22-.16-2.59-1.95-1.44-1.07,1.26.97-.75-.59-.81-.64-.81-.64-1.62-1.29-2.43-1.94-2.81-2.26-5.59-4.57-8.36-6.87-6.34-5.25-12.72-10.45-19.37-15.31-5.44,9.31-10.88,18.62-16.32,27.92,31.2,14.7,69.14,29.07,103.14,14.75,7.52-3.17,12.75-9.06,11.58-17.74s-7.76-12.94-15.88-14.02c3.77.5-1.3-.42-2.05-.61-1.42-.36-2.83-.77-4.22-1.24-.59-.2-5.34-2.03-2.44-.8-1.42-.6-2.81-1.27-4.18-1.96-5.97-2.97-11.65-6.5-17.2-10.18-11.1-7.36-21.7-15.55-33.39-21.98-2.72,10.04-5.44,20.09-8.16,30.13,28.84-3.16,57.31-8.53,85.18-16.61,15.82-4.59,14.89-26.19,0-31.18-22.13-7.42-45.63-10.97-68.96-10.58l4.3,31.76c-1.88.26,2.78-.3,3.19-.35,1.87-.2,3.75-.38,5.63-.53,3.76-.31,7.52-.52,11.29-.64,7.54-.24,15.09-.11,22.61.38,14.25.93,27.34,3.26,42.09,7.3-3.76-6.63-7.53-13.26-11.29-19.89-.16.58-.35,1.16-.57,1.72.99-2.25,1.2-2.82.63-1.7-.69.71-1.36,2.16-1.86,3.03,1.2-2.07,1.26-1.5-.23.17-.78.87-1.6,1.72-2.44,2.53s-1.79,1.68-2.72,2.47c-.64.55-1.29,1.08-1.95,1.61,1.41-1.08,1.64-1.27.7-.58-2.49,1.36-4.76,3.27-7.23,4.72-2.31,1.35-4.67,2.61-7.09,3.76-.79.38-1.59.74-2.39,1.1,1.67-.69,1.96-.82.88-.38-1.39.43-2.74,1.05-4.13,1.52-2.22.74-4.48,1.38-6.77,1.86-3.11.65-1.18,1,.13.08-.69.48-2.95.16-3.78.15,3.81,9.2,7.62,18.4,11.43,27.6.77-.77,1.58-1.49,2.38-2.23,3.09-2.85-2.23,1.28.15-.12,2.16-1.27,4.19-2.74,6.39-3.96,2.09-1.15,4.22-2.21,6.38-3.22,1.3-.61,2.62-1.17,3.92-1.76-4.34,1.96.4-.15,1.28-.5,11.12-4.44,22.53-8.1,33.8-12.12,20.82-7.43,48.35-16.53,58.92-37.95,3.09-6.26,2.98-14.54-2.53-19.59-5.78-5.3-12.66-5.49-19.59-2.53,4.38-1.87-.64.17-1.51.48-1.18.42-2.37.83-3.57,1.22-3.01.98-6.06,1.87-9.11,2.72-6.42,1.78-12.89,3.37-19.35,4.98-13.07,3.26-25.93,6.64-38.34,11.93,6.53,8.47,13.06,16.93,19.59,25.4,11.74-10.01,22.8-20.79,33.03-32.35s21.88-28.6,13.02-44.69c-9.88-17.94-31.85-15.74-45.15-3.45-11.97,11.07-16.66,28.39-18.45,44.02-.71,6.25,4.66,12.55,9.94,14.78,5.86,2.47,13.13,1.34,17.66-3.34,8.61-8.88,13.65-20.27,18.12-31.62,3.89-9.87,6.9-20.06,9.69-30.29,2.97-10.88-8.03-24.61-19.89-19.89-11.24,4.47-16.76,13.59-20.69,24.6-2.8,7.83-4.93,17.21-4.11,25.54,1.26,12.81,12.62,19.33,24.33,13.96,9.96-4.57,15.74-16.29,21.5-25.05,1.16-1.77-2.48,2.77.04-.03.82-.91,1.68-1.76,2.52-2.64,2.27-2.4-2.92,2.48.14-.1.15-.13,1.34-.61,1.35-.75-.03.49-3.92,1.08-1.72.74.57-.09,1.42-.25,1.91-.49,1.06-.51-3.06,0-1.85.31.39.1,1.32.09,1.73.04,1.63-.22-3.69-.99-1.06-.07,1.57.55,4.13,1.8,1.27.19,1.94,1.09,3.9,2.05,5.78,3.26l-8.01-13.96c.11.86.15,1.72.13,2.58-.13,1.88-.09,1.66.11-.64-.18.79-.41,1.56-.68,2.32.9-1.98.97-2.16.2-.52-1.5,2.7-3.08,5.34-4.64,8-4.22,7.21-7.48,15.31-6.74,23.82.57,6.59,3.6,12.1,9.94,14.78s12.41.84,17.66-3.34c-.1.08-3.47,2.68-1.63,1.44s-1.46.89-1.56.59c-.03-.08,3.5-1.26,3.8-1.36,3.01-1.01,6.05-1.91,9.02-3.02,9.05-3.39,16.07-7.43,19.67-16.88,3.02-7.92-3.34-18.08-11.29-19.89-9.23-2.1-16.66,2.81-19.89,11.29,3.83-5.43,4.75-7.14,2.75-5.12,2.32-1.7,2.75-2.09,1.3-1.17-.54.3-1.09.58-1.65.84l2.01-.83c-.12-.16-7.19,2.51-7.89,2.73-6.39,2.08-12.2,4.28-17.51,8.51,9.2,3.81,18.4,7.62,27.6,11.43-.11-.86-.15-1.72-.13-2.58.13-1.88.09-1.66-.11.64.6-1.68,1.06-3.11-.04-.7,1.2-2.61,2.72-5.05,4.2-7.51,4.03-6.68,7.25-13.67,7.75-21.58.47-7.35-1.96-13.5-8.06-17.79-3.27-2.3-7.03-3.89-10.72-5.36-6.27-2.5-13.47-3.16-20.06-1.62-11.08,2.58-18.63,10.85-24.79,19.88-2.19,3.21-4.25,6.52-6.4,9.75-1.49,2.25-1.98.7.47-.53-.52.26-1.27,1.39-1.66,1.86-2.17,2.59-.51-1.18,1.03-.58-.14-.05-1.87,1.09-2.13,1.21,8.11,4.65,16.22,9.31,24.33,13.96-.11-1.1-.14-2.18-.12-3.28.02-.65.06-1.29.11-1.94.18-1.74.11-1.37-.21,1.11-.62-2.3,1.39-7.09,2.04-9.34.46-1.57,1.02-3.09,1.55-4.64.67-1.69.58-1.48-.26.62.31-.67.65-1.34,1-1.99.55-1.01,3.36-4.87.26-.87.38-.44.79-.85,1.22-1.23-1.26,1.31-2.77,2.18-4.54,2.6-6.63-6.63-13.26-13.26-19.89-19.89-2.54,9.3-5.26,18.55-8.65,27.58-.42,1.13-.86,2.26-1.31,3.38-.48,1.19-1.26,2.9-.3.77-1.13,2.52-2.29,5.03-3.59,7.47-1,1.88-2.07,3.74-3.25,5.52-.56.85-2.95,3.4-.24.52-.74.78-1.41,1.62-2.17,2.4l27.6,11.43c-.2,1.77,0-.06.14-.8.27-1.41.56-2.8.91-4.19.56-2.23,1.26-4.39,2.01-6.56.41-1.03.39-1.07-.04-.12l.71-1.56c.5-1.03,1-2.06,1.55-3.06.49-.91,1.01-1.8,1.55-2.68,2.16-3.49-1.1.99.59-.65.21-.2,2.3-2.33,1.04-1.18-1.36,1.24,1.86-1.16,1.85-1.15-1.14.92-1.89.15-.18.11-1.27.03-2.5-.15-.63.16-4.43-.72-5.96-2.42-7.46-6.26-.86-2.18-.14,1.54.04-.57.2-2.34-.57,1.52-.63,1.75.41-1.49.66-1.3-.11.04-.49.84-.95,1.69-1.47,2.51-.22.35-2.56,3.41-1.24,1.82,1.2-1.45-1.2,1.3-1.42,1.55-3.44,3.96-6.97,7.83-10.6,11.62-7.68,8.02-15.8,15.61-24.25,22.82-6.12,5.22-5.83,15.32-1.26,21.23,5.31,6.88,13.31,7.39,20.86,4.16-4.38,1.87.64-.17,1.51-.48,1.18-.42,2.37-.83,3.57-1.22,3.01-.98,6.06-1.87,9.11-2.72,6.42-1.78,12.89-3.37,19.35-4.98,13.07-3.26,25.93-6.64,38.34-11.93l-22.12-22.12c-.48.96-1.04,1.86-1.55,2.8-1.96,3.54,1.92-1.75.06.04-1.48,1.41-2.82,2.93-4.35,4.3-3.23,2.89,1.99-1.11-.41.33-1.11.67-2.15,1.48-3.25,2.17-2.04,1.28-4.14,2.46-6.27,3.58-2.59,1.36-5.24,2.61-7.92,3.79-.7.31-4.39,1.77-.34.17-1.45.57-2.88,1.18-4.33,1.74-5.61,2.2-11.29,4.22-16.98,6.2-12.12,4.23-24.25,8.37-36.06,13.43-9.7,4.16-19.26,9.21-26.78,16.78-9.98,10.03-2.52,27.4,11.43,27.6,14.15.21,28.73-5.98,40.63-13.18,12.5-7.57,25.04-18.14,29.38-32.62,2.51-8.36-3-17.62-11.29-19.89-33.43-9.15-67.76-10.82-102-6.16-7.93,1.08-12.53,10.71-11.58,17.74,1.04,7.77,7.79,14.16,15.88,14.02,21.59-.36,39.68,2.49,60.36,9.43v-31.18c-25.11,7.28-52.09,12.77-76.58,15.46-6.9.76-13.91,4.46-15.59,11.87-1.57,6.88.98,14.71,7.43,18.26,12.65,6.96,24.02,15.94,36.12,23.76,13.55,8.75,27.62,15.28,43.69,17.43l-4.3-31.76c-3.62,1.53-7.31,2.78-11.15,3.63-.56.12-5.14.91-2.25.53-1.64.22-3.32.33-4.98.41-3.64.18-7.29.07-10.92-.24-.85-.07-1.69-.15-2.54-.25,1.47.22,1.21.18-.79-.13-1.7-.3-3.4-.6-5.09-.96-7.45-1.58-14.74-3.84-21.88-6.49s-11.06-4.42-18.6-7.98-17.8-2.38-22.12,5.8-1.52,16.78,5.8,22.12c.62.45,3.97,2.98,2.88,2.13s1.84,1.48,2.37,1.9c2.95,2.37,5.85,4.79,8.76,7.2,6.03,4.99,12.11,9.92,18.4,14.59,11.91,8.85,25.07,16.02,39.94,18.02s26.66-2.84,38.17-11.15c5.9-4.26,11.56-8.84,17.26-13.35.97-.77,1.95-1.53,2.92-2.3-2.33,1.84-.68.52.69-.48,2.58-1.87,5.3-3.55,8.01-5.23,16.61-10.31,33.52-19.76,48.43-32.55,6.11-5.24,5.85-15.3,1.26-21.23-4.61-5.97-14.18-8.74-20.86-4.16-1.8,1.23-3.65,2.25-5.58,3.25-1.44.74-1.25.48.12-.01-1.1.39-2.19.82-3.3,1.2-4.37,1.5-8.85,2.69-13.3,3.93-9.24,2.57-18.95,5.36-26.94,10.84,6.53,8.47,13.06,16.93,19.59,25.4,1.05-1.1,2.12-2.17,3.25-3.19.83-.74,3.94-2.98,1.4-1.22,2.86-1.98,5.75-3.84,8.8-5.52,6.17-3.42,12.62-6.28,19.07-9.12s12.87-5.6,19.09-8.86c5.93-3.11,11.11-7.06,16.66-10.75,4.63-3.07,9.57-5.87,13.25-10.11,2.42-2.78,4.39-5.75,5.88-9.11.98-2.2,2.35-4.65,2.9-7.03.43-1.87-1.46,3.24-.57,1.29.3-.65.58-1.31.87-1.97,5.33-11.89,13.45-25.23,12.81-38.72-.67-14.23-5.5-28.68-11.63-41.41-6.39-13.28-16.67-22.67-29.79-29.21-15.49-7.72-32.96-12.01-50.18-8.41-11.03,2.31-22.27,7-32.74,11.09-6.5,2.54-13.41,5.07-19.3,8.92-7.51,4.91-11.79,11.76-13.9,20.43-.79,3.24-1.29,6.54-2.04,9.79-.18.77-.36,1.54-.57,2.29-.17.61-.73,3.71-.25,1.13.34-1.86.49-.78-.04-.15-.78.93-1.41,2.03-2.08,3.05-5.5,8.29-9.04,17.66-14.79,25.8-3.95,5.59-2.41,15.07,2.53,19.59,5.52,5.07,12.94,5.92,19.59,2.53,19.8-10.09,36.61-25.65,54.95-38.03-6.53-8.47-13.06-16.93-19.59-25.4-16.54,15.27-33.19,32.47-45.79,51.18-5.57,8.27-.22,21.79,9.66,23.75,8.22,1.63,16.31,1.69,24.34-1,6.54-2.18,12.2-8.28,11.87-15.59-.29-6.57-4.74-14.46-11.87-15.59-27.54-4.38-55.09-8.76-82.63-13.15-6.92-1.1-14.68.66-18.26,7.43-3.42,6.48-2.6,14.22,2.53,19.59,10.75,11.27,21.5,22.54,32.25,33.81l22.87-22.87c-18.28-15.49-36.56-30.99-54.85-46.48-5.33-4.52-13.26-6.61-19.59-2.53-5.63,3.63-10.03,11.45-7.43,18.26,6.01,15.71,12.01,31.43,18.02,47.14,9.85-4.15,19.7-8.31,29.55-12.46-8.68-15.98-20.73-29.05-35.1-40.04-9.51-7.28-25.32,2.52-24.33,13.96,2.21,25.66,11.77,48.78,21.92,72.17l27.92-16.32c-11.89-20.87-30.16-35.85-52.1-45.09-11.63-4.9-23.11,9.16-19.89,19.89,3.53,11.77,5.99,23.84,10,35.47,4.32,12.52,10.17,26.23,20.92,34.61,6.53-8.47,13.06-16.93,19.59-25.4-5.61-2.98-11.05-6.25-16.27-9.87-1.36-.94-2.71-1.91-4.05-2.89-.56-.41-2.97-2.29-1.34-1-2.61-2.06-5.14-4.21-7.62-6.42-4.75-4.25-9.27-8.76-13.54-13.49-2.04-2.26-4.03-4.57-5.95-6.93.04.05-3.07-3.9-1.58-1.94-1.01-1.32-1.99-2.65-2.95-4-2.34-3.27-4.19-6.77-5.9-10.4-.55-1.17-1.08-2.35-1.61-3.53-1.84-4.04,1.2,3.09-.45-1.05-.95-2.37-1.88-4.75-2.71-7.16-1.29-3.74-2.1-7.42-2.84-11.29-.83-4.34.16,3.37-.18-1.16-.11-1.39-.12-2.76-.19-4.15-.19-3.5-.46,2.71.07-.84l-.78,1.62c.91-1.52.77-1.35-.41.52h-22.87c5.71,6.9,12.68,12.66,19.16,18.81,3.38,3.21,6.5,6.59,9.69,9.98,2.04,2.18-.47-.99.45.47.58.92,1.26,1.77,1.84,2.69.44.71.82,1.45,1.26,2.15,2.05,3.27-.98-3.02.24.45,6.63-6.63,13.26-13.26,19.89-19.89-.94-.22-5.76-2.3-2.69-.64-.69-.37-5.16-3.56-2.51-1.29-1.25-1.07-2.3-2.28-3.46-3.44-.74-.87-.61-.7.39.51-.53-.77-1.02-1.56-1.48-2.37-.46-.81-.88-1.64-1.26-2.49.74,1.72.8,1.7.18-.05-.26-.89-.48-1.79-.65-2.7.22,2.01.25,2.07.1.17.05-.98.63-4.84-.2-1.19.17-.89.4-1.76.68-2.61-.81,1.77-.77,1.86.1.26-2.1,2.72-4.29,2.92-7.17,3.64-1.11-.52-1.16-.52-.16.01.72.38,1.41.8,2.08,1.26,1.53,1.1,1.65,1.16.37.16.78.63,1.55,1.29,2.29,1.97,1.5,1.37,2.83,2.86,4.22,4.33,2.41,2.55-.54-1.23,1.17,1.51,1.07,1.71,2.18,3.38,3.13,5.17.47.89.92,1.79,1.34,2.71-.63-1.55-.61-1.44.07.34.59,1.93,1.2,3.83,1.68,5.8,3.76-6.63,7.53-13.26,11.29-19.89-4.06,1.35.08-1.28,5.92.48l7.14,4.16-.13-.16,4.74,11.43c.06.81-3.87,8.9-1.36,6.32.51-.52.93-1.24,1.37-1.82,1.3-1.72,2.62-3.42,3.74-5.26,4.01-6.59,6.14-14.39,4.35-22.05-1.36-5.81-5.1-10.96-9.44-14.95-1.46-1.34-3.03-2.56-4.57-3.82-.71-.58-1.43-1.15-2.11-1.76-.8-.71-2.33-2.94-.93-.57s.75,1.07.49.58c2.05,3.77.87,4.14-.52,9.5.31-1.2-.91,8.42-3.87,8.25.36.02,1.53-.94,1.87-1.13.63-.36,1.3-.66,1.92-1.03-.25.15-2.29.77-.53.21,1.62-.52,3.23-.98,4.86-1.45.62-.18,3.16-.52,0-.14.72-.09,1.45-.14,2.18-.18,1.46-.08,2.91-.09,4.37-.01.73.04,1.45.1,2.18.16-.36-.03-2.43-.58-.7-.03,1.6.51,3.3.81,4.92,1.3,2.81.85-1.08-.8,1.48.63,1.27.71,2.49,1.49,3.74,2.23-2.26-1.35.79.69,1.53,1.39,1.4,1.32,2.72,2.72,4.02,4.14,5.14,5.59,10.02,11.93,17.6,14.22,12.49,3.76,24.83-3.06,36.66-5.98,6.4-1.58,12.44-8.74,11.87-15.59-1.7-20.47-19.89-34.45-35.53-45.28-17.65-12.23-37.19-22.01-57.23-29.67-8.82-3.37-17.77-6.04-27.21-6.84v32.34c3.34.13-4.06-1.1-1.63-.28.57.19,1.21.25,1.8.4,1.62.41,3.15,1.04,4.73,1.56,2.51.82-3.98-1.87-.09-.03.8.38,1.6.75,2.4,1.14,2,.98,3.97,2.04,5.92,3.13,4.36,2.45,8.6,5.13,12.74,7.93,2.21,1.5,4.4,3.04,6.56,4.62,1.25.92,2.49,1.85,3.74,2.78,2.62,1.96-2.37-1.95.88.7,7.97,6.48,15.75,13.22,22.54,20.96.74.84,1.44,1.7,2.16,2.55.39.47.77.95,1.15,1.43-1.52-1.99-1.92-2.49-1.19-1.51,1.01,1.6,2.18,3.08,3.12,4.72.42.73.76,1.51,1.19,2.23,1.39,2.32-1.21-4.22-.51-1.16.14.63.32,1.37.55,1.97.85,2.3-.31-5-.34-1.71l31.76-4.3c-8.51-23.01-29.23-38.88-53.24-43.29-27.34-5.02-53.81,3.35-78.84,13.74,6.82,5.2,13.65,10.39,20.47,15.59-.34-2.56-.49-5.08-.48-7.67.02-.65.06-1.3.12-1.94-.4,2.6-.49,3.28-.28,2.02.28-.93.47-1.97.68-2.93.67-3.02.96.41-.49.89.08-.03,1.52-2.5,1.5-2.59,0-.02-2.41,4.06-.69,1.05,1.34-2.35.48.41-1.12.66.62-.1,1.87-1.19,2.44-1.54,2.36-1.46.55.88-1.17.41.77.21,4.39-1.19,5.26-1.41,2.91-.76-3.89.16-1.02.15,1.14,0,2.29-.15,3.44-.17,1.96-.03,3.91.07,5.86.24.46.04.93.09,1.39.14,1.74.21,1.25.14-1.48-.21.67-.12,2.19.36,2.86.48,2.27.42,4.51.93,6.74,1.51,4.37,1.14,8.67,2.57,12.88,4.21,1.18.46,4.75,1.24.26.07.86.22,1.86.82,2.67,1.2,2,.92,3.97,1.9,5.91,2.94,3.47,1.86,6.83,3.91,10.02,6.22,6.87,4.99,18.32,1.4,22.12-5.8,4.43-8.39,1.53-16.8-5.8-22.12h0Z"/>
  <path class="st2" d="M332.6,19.24c-35.57-5.9-63.57,18.13-85.77,42.72-5.96,6.61,3.81,16.44,9.8,9.8,18.2-20.16,42.42-44.12,72.29-39.16,8.73,1.45,12.48-11.91,3.68-13.36h0Z"/>
  <path class="st2" d="M208.88,108.47c3.67,3.14,7.34,6.28,11.01,9.41s7.5,6.8,12.75,5.19c4.51-1.38,6.36-5.68,8.47-9.49,2.58-4.67,5.17-9.35,7.75-14.02,4.32-7.81-7.65-14.81-11.97-7-1.52,2.75-3.04,5.5-4.56,8.25-.91,1.65-1.82,3.3-2.74,4.95-.61,1.11-2.24,2.95-2.28,4.12-.96,1.3-.41,1.33,1.64.1,2.53-.2,2.78-.84.72-1.91-.63-1.12-2.49-2.13-3.44-2.94l-7.57-6.47c-6.75-5.77-16.59,3.99-9.8,9.8h0Z"/>
  <path class="st2" d="M318.79,59.74c16.21.34,31.83,3.25,47.21,8.47,14.67,4.99,25.01-18.67,10.68-25.33-21.44-9.97-44.69-14.92-68.37-13.36l7,25.83c20.24-15.25,43.43-22.89,68.16-22.36,13.47.29,19.25-19.41,7-25.83-25.19-13.21-60.73-3.09-72.26,23.99-2.23,5.25-2.92,12.65,2.17,16.8,6.58,5.37,13.45,8.1,21.98,8.52,2.97.15,5.94-.12,8.88-.48,2.25-.27,4.49-.59,6.74-.9.66-.09,4.64-.64,3.2-.46,7.31-.87,10.27-.92,16.61,1.18.5.17,3.61,1.48,2.02.74,1.31.62,2.6,1.29,3.86,2s2.52,1.5,3.75,2.31c.62.41,1.22.84,1.83,1.27,1.99,1.39-1.16-.97.77.55,5.03,3.94,9.54,8.6,13.78,13.37s7.89,9.39,10.98,13.5c3.88,5.16,8.08,10.48,9,16.27.99,6.24-1.3,13.05-3.01,19.11-7.21,25.48-18.91,48.71-35.14,70.42s-37.81,39.57-59.62,55.61c-28.09,20.67-57.93,38.86-88.61,55.43-6.58,3.56-8.66,12.66-4.97,18.96,3.89,6.65,12.35,8.54,18.96,4.97,28.52-15.41,56.32-32.21,82.67-51.11,25.25-18.12,50.01-37.49,69.41-61.98,18.52-23.37,32.86-49.53,41.93-77.99,5.41-16.98,9.26-34.24,1.32-51.07-3.17-6.73-7.92-12.55-12.44-18.4s-9.02-11.46-14.03-16.76c-10.74-11.38-24.29-21.97-39.94-25.22-9.1-1.89-17.53-1.15-26.64.15-3.77.54-4.69.83-9.15.88-.72,0-1.44-.01-2.16-.04-2.57-.1,3.14.47-1.15-.17-.03,0-2.23-.44-.92-.2s-1.84-1.3-.3-.04l2.17,16.8c.92-2.17,2.04-4.13,3.27-6.14.77-1.24-1.18,1.1.52-.68.87-.92,1.7-1.84,2.63-2.71.22-.2,3.31-2.55,1.11-1.02.87-.61,1.75-1.19,2.65-1.73s1.86-1.01,2.78-1.53c3.14-1.78-2.08.47,1.37-.6,2.04-.63,4.05-1.18,6.13-1.68,3.53-.85-2.28-.13,1.34-.16,1.27-.01,2.52-.11,3.79-.07,2.52.08,6.22.96,8.72,2.27l7-25.83c-29.24-.62-58.75,8.52-82.15,26.15-4.99,3.76-8.14,9.22-6.37,15.65,1.54,5.6,7.35,10.57,13.36,10.18,18.74-1.23,37.2,1.59,54.38,9.58,3.56-8.44,7.12-16.89,10.68-25.33-17.56-5.97-36.04-9.07-54.58-9.46-7.49-.16-13.86,6.48-13.86,13.86s6.35,13.7,13.86,13.86h0Z"/>
  <path class="st2" d="M417.97,145.25c-9.57,21.11-22.14,40.13-37.97,56.79-5.15,5.43-5.39,14.21,0,19.6s14.43,5.45,19.6,0c17.41-18.33,31.86-39.38,42.3-62.4,3.09-6.81,1.95-14.91-4.97-18.96-5.95-3.48-15.86-1.88-18.96,4.97h0Z"/>
  <path class="st2" d="M218.96,68.53c-38.17-24.54-86.65-38.28-132.11-32.99-22.33,2.6-44.76,10.44-59.47,28.33-13.73,16.7-20.21,38.54-19.21,60.07.75,16.12,6.33,30.31,13.34,44.68s15.99,29.53,25.62,43.22c4.81,6.84,9.87,13.57,15.42,19.83,5.02,5.67,10.64,10.08,16.64,14.7,16.12,12.42,32.39,24.7,49.24,36.14,32.01,21.73,66.7,38.38,101.52,55.01,6.75,3.22,14.96,1.86,18.96-4.97,3.54-6.05,1.81-15.72-4.97-18.96-29.32-14.01-58.85-27.83-86.41-45.13-13.98-8.78-27.47-18.32-40.73-28.14-12.76-9.45-26.33-18.37-36.66-30.57-.93-1.1-1.84-2.21-2.74-3.34,0,0-2.27-2.89-1.01-1.27,1.08,1.39-.44-.58-.68-.91-2.32-3.12-4.59-6.27-6.78-9.48-4.55-6.64-8.84-13.47-12.89-20.42s-7.7-13.71-11.11-20.79c-.68-1.42-1.35-2.85-2.01-4.28-.39-.87-.78-1.74-1.17-2.61-.18-.41-1.11-2.63-.39-.89.62,1.5-.99-2.53-1.26-3.25-.57-1.52-1.11-3.04-1.61-4.59-2.31-7.14-2.66-10.25-2.68-17.73,0-2.26.08-4.52.25-6.77.08-1,.17-2,.29-3-.23,1.91.1-.55.14-.78.92-4.92,2.16-9.7,3.9-14.4.06-.17,1.04-2.4.31-.79.4-.9.83-1.79,1.28-2.66,1-1.97,2.1-3.89,3.3-5.75,2.08-3.23,4.14-5.7,7.79-9.01,6.09-5.53,14.14-9.14,22.4-11.38,19.95-5.42,43.78-4.01,64.49.26,23.43,4.83,44.92,13.65,65.01,26.56,6.3,4.05,15.3,1.29,18.96-4.97,3.92-6.71,1.34-14.9-4.97-18.96h0Z"/>
  <path class="st2" d="M65.33,234.48c3.09,4.66,6.82,9.14,11.01,12.87,2.76,2.45,6.03,4.06,9.8,4.06,3.4,0,7.46-1.51,9.8-4.06,4.83-5.27,5.79-14.46,0-19.6-2.63-2.34-5.01-4.96-7.17-7.73l2.17,2.81c-.58-.76-1.14-1.54-1.67-2.33-2-3.01-4.73-5.39-8.28-6.37-3.32-.91-7.74-.5-10.68,1.4-6.02,3.88-9.26,12.5-4.97,18.96h0Z"/>
  <path class="st2" d="M65.36,117.45c2.66-17.14,10.77-31.37,20.55-45.84,4.93-7.29,9.91-13.88,15.46-20.57,6.42-7.74,8.66-15.35,8.68-25.36.02-10.92-11.68-16.72-20.86-11.97-4.44,2.3-8.73,4.95-11.39,9.32-5.27,8.69.97,19.7,10.56,21.02,11.36,1.56,20.55-7.64,21.68-18.37,1.11-10.51-12.58-17.22-20.86-11.97-31.74,20.14-63.51,60.52-47.52,100.07,2.8,6.94,9.24,11.83,17.05,9.68,6.58-1.81,12.5-10.07,9.68-17.05-.74-1.84-1.43-3.69-1.96-5.6-.14-.5-1.19-5.71-.87-3.38-.26-1.87-.3-3.79-.29-5.67,0-.5.39-5.77.09-3.39.49-3.83,1.69-7.5,2.89-11.16.62-1.56.71-1.82.25-.79.4-.91.82-1.81,1.25-2.7.77-1.58,1.6-3.12,2.47-4.65,7.39-12.88,18.68-23.65,30.95-31.44l-20.86-11.97c.02-2.75.91-5.1,2.67-7.03,1.97-1.41,2.37-1.75,1.17-1.02,2.1-1.11,4.09-1.52,7.46-.62l6.12,3.56-.15-.14,4.06,9.8-.02-.2-1.89,7c-.64,1.17-1.51,2.11-2.61,2.81-1.13.82-1.13.83.02.05,1.35-.72,2.66-1.52,4.03-2.23l-20.86-11.97c0,1.5-.02,3-.13,4.5.28-3.77-.92,4.08-.04.75,1.02-1.17.89-1-.39.51-.71.86-1.41,1.72-2.11,2.58-1.43,1.76-2.83,3.53-4.23,5.31-5.74,7.35-11.31,14.83-16.35,22.67-9.34,14.53-17.78,30.84-20.45,48.07-1.15,7.39,1.88,14.91,9.68,17.05,6.57,1.81,15.89-2.24,17.05-9.68h0Z"/>
  <path class="st2" d="M195.98,74.15c-33.23-22.27-79.31-36.65-112.93-7.37-5.65,4.92-5.04,14.56,0,19.6,5.6,5.6,13.94,4.93,19.6,0,1.68-1.46,5.37-3.92,8.74-5.6,2.08-1.04-1.59.55.56-.26.87-.33,1.74-.63,2.63-.91,1.99-.63,4-1.07,6.03-1.51.9-.19,1.93-.28.42-.11.92-.1,1.84-.18,2.76-.23,2.09-.13,4.19-.14,6.28-.06.94.04,1.88.09,2.81.16.24.02,2.89.26,1.68.12s1.44.23,1.69.27c1.18.2,2.36.43,3.53.68,3.79.81,7.53,1.88,11.21,3.12,2.08.71,4.14,1.48,6.19,2.3,2.25.91-1.47-.67.74.31.89.39,1.78.8,2.66,1.21,7.46,3.49,14.58,7.63,21.41,12.21,6.22,4.17,15.35,1.21,18.96-4.97,3.98-6.81,1.26-14.78-4.97-18.96h0Z"/>
  <path class="st2" d="M205.87,81.47c-24.5-22.96-57.36-31.14-90.12-25.58-30.19,5.12-58.87,23.61-73.8,50.72-8.88,16.12-11.83,33.93-8.5,52,8.91-2.46,17.82-4.91,26.73-7.37-9.9-31.18-13.85-63.65-18.46-95.91-1.41-9.89-17.05-13.83-23.17-6.12-11.14,14.04-15.71,32.74-8.59,49.82,2.66,6.37,7.82,11.04,15.21,9.93,6.84-1.03,11.86-6.57,12.02-13.61.08-3.54,1.19-6.83,3.45-9.2.96-1,1.91-2.03,3-2.9-1.73,1.38,1.57-.87,1.76-1l1.23-.65c-.98.35-1.02.36-.11.04,1.55-.56,3.13-.92,4.74-1.23l-17.05-17.05c-2.28,13.63-4.57,27.25-6.85,40.88l27.22,3.68c-.84-20.93,1-41.6,5.81-61.99,2.38-10.09-6.57-20.04-17.05-17.05-4.54,1.3-8.52,3.11-11.53,6.88-4.67,5.84-5.71,13.89,0,19.6s13.91,4.9,19.6,0c4.37-3.76,9.25-7.14,15.26-10.26,1.27-.66,2.56-1.28,3.86-1.88,2.14-.99-1.6.6.58-.25.65-.25,1.3-.51,1.95-.74,3.01-1.1,6.08-2.01,9.2-2.74,1.32-.31,2.64-.58,3.98-.83.66-.12,1.33-.23,1.99-.33,2.28-.36-1.98.19.31-.03,3.12-.29,6.23-.48,9.36-.47,2.91.01,5.8.23,8.7.46,2.63.22-.95-.24,1.65.2,1.78.3,3.55.61,5.32.99,23.53,5.04,43.82,17.83,61,34.51,5.07,4.92,9.85,10.16,14.27,15.67.44.54.87,1.09,1.3,1.64-.89-1.16-.03-.02.35.5,1.07,1.49,2.15,2.96,3.19,4.47,2.04,2.96,3.96,6,5.79,9.1,3.81,6.44,12.48,8.77,18.96,4.97s8.8-12.5,4.97-18.96C194.65,42.86,137.02.87,78.2,12.05c-17.45,3.32-33.06,12.22-46.39,23.7l19.6,19.6c1.29-1.41,1.13-1.46-.48-.13-1.94.85-2.02.98-.23.38l-17.05-17.05c-5.34,22.69-7.73,46.06-6.8,69.36.27,6.85,5.06,12.78,12.02,13.61,6.24.74,14.05-3.04,15.21-9.93,2.28-13.63,4.57-27.25,6.85-40.88,1.81-10.79-6.07-19.13-17.05-17.05-19.72,3.74-33.98,21.93-34.42,41.67l27.22-3.68c-1-2.39-1.84-4.83-2.31-7.39.33,1.81-.12-2.4-.12-2.44,0-.38.12-3.78.02-2.76.32-3.33,2.31-8.29,3.87-10.27-7.72-2.04-15.44-4.08-23.17-6.12,4.61,32.26,8.55,64.74,18.46,95.91,2.27,7.13,9.63,11.72,17.05,9.68s11.04-9.66,9.68-17.05c-.22-1.19-.53-3.36-.57-6.45-.02-1.43.01-2.86.1-4.28.04-.71.11-1.42.17-2.12.21-2.35-.35,1.8.07-.52.5-2.78,1.15-5.52,2-8.22.5-1.57,1.04-3.14,1.67-4.66-.7,1.67.98-1.94,1.26-2.5,4.94-9.62,12.75-18.63,20.55-24.32,10.89-7.93,19.53-11.64,32.39-14.51,10.15-2.26,23.57-2.58,33.25-.59,13.82,2.85,25.16,8.61,35.19,18.01,5.46,5.12,14.19,5.41,19.6,0s5.48-14.46,0-19.6h0Z"/>
  <path class="st2" d="M57.81,157.36c-4.58-4.74-8.52-10.44-11.02-16.33s-3.88-13.11-3.99-18.62c-.04-1.82,0-3.64.13-5.45.06-.91.14-1.81.24-2.72-.07.65-.49,2.34.1-.37.39-1.79.74-3.57,1.23-5.34.25-.88.52-1.76.81-2.63.1-.29,1.28-3.5.77-2.23.69-1.7,3.2-6.26,5-8.88.13-.2,1.88-2.56,1.07-1.52-.71.91.83-.95.77-.88.67-.74,1.31-1.5,2-2.21-.02.02,3.07-2.71,1.77-1.7,3.08-2.39,6.42-4.49,9.81-6.39,1.67-.94,3.38-1.82,5.11-2.64.86-.41,1.73-.82,2.6-1.19-1.69.72.72-.25,1.31-.47,3.32-1.24,6.72-2.28,10.16-3.12,1.84-.45,3.68-.85,5.54-1.19.93-.17,1.86-.33,2.8-.47-2.49.39,1.9-.21,1.96-.22,16.79-1.66,29.44.15,45.09,4.93,9.14,2.79,14.74,5.11,22.75,9.27,3.94,2.04,7.79,4.24,11.55,6.6,2.07,1.3,4.11,2.65,6.12,4.05.8.56,1.59,1.12,2.38,1.69.31.22,3.44,2.56,1.84,1.33,5.91,4.58,13.84,5.76,19.6,0,4.78-4.78,5.95-14.99,0-19.6-30.28-23.47-68.98-39.41-107.91-36.11-19.59,1.66-38.83,7.76-54.71,19.6-16.87,12.58-26.35,32.22-27.53,53.1-1.24,21.95,7.91,43.67,23.04,59.33,5.2,5.38,14.37,5.23,19.6,0s5.22-14.2,0-19.6h0Z"/>
  <path class="st2" d="M370.04,207.66c-2.14,7.99-4.82,13.35-10.86,18.73-5.59,4.98-5.08,14.53,0,19.6,5.56,5.56,13.99,4.99,19.6,0,9.13-8.12,14.86-19.27,17.99-30.96,4.61-17.25-22.12-24.61-26.73-7.37h0Z"/>
  <path class="st2" d="M411.47,122.08c3-20.69-.14-40.07-9.09-58.94-7.88-16.6-19.73-31.1-31.6-44.99l4.06,9.8c-.12-2.14-.44-4.3-.86-6.39-.26-1.28.31-1.4-.12-.2.12,1.17.15,1.4.11.7-.08-2.23-.56-.53-1.44,5.1l-4.97,4.97-2.3,1.07h-7.37c1.27.18.39-.11-.33-.42,1.02.45,1.99,1.28,2.9,1.91.2.14,2.23,1.6,1.41.98s1.15.94,1.33,1.1c3.06,2.57,5.92,5.37,8.56,8.37.78.88,1.54,1.79,2.28,2.71,1.47,1.83-.95-1.34.42.57,1.1,1.54,2.16,3.09,3.17,4.7,1.12,1.8,2.18,3.64,3.16,5.52.43.83.83,1.69,1.26,2.52l.59,1.28c-.37-.95-.38-.97-.02-.08,1.48,3.65,2.65,7.45,3.49,11.3.2.9.36,1.81.53,2.71s.26,1.92.09.41c.22,2.05.35,4.1.37,6.16.02,1.83-.05,3.65-.2,5.47-.07.89-.47,3.05-.1,1.07-.17.9-.33,1.8-.53,2.7-.99,4.46-2.05,7.17-3.4,9.83-3.37,6.68-1.76,15.02,4.97,18.96,6.16,3.61,15.58,1.74,18.96-4.97,15.98-31.65,5.76-68.96-18.32-93.56-5.8-5.92-13.35-13.08-21.45-15.53-11.18-3.38-21.47,4.64-20.65,16.29-.14-2.06.74,6.2.97,6.17.04,0-.46-3.61-.21-1.39.29,2.57.52,4.65,1.89,7,2.34,4,6.24,7.56,9.17,11.15,4.82,5.9,9.47,12.14,13.93,19.41,5.08,8.28,8.25,14.76,10.68,23.55,2.38,8.58,3.21,17.03,1.96,25.65-1.07,7.4,1.83,14.89,9.68,17.05,6.51,1.79,15.97-2.23,17.05-9.68h0Z"/>
  <path class="st2" d="M293.15,86.75c3.8-2.2,7.69-4.24,11.68-6.08,1.03-.48,2.07-.94,3.12-1.39-3.01,1.31.56-.2.94-.35,2.16-.84,4.34-1.63,6.54-2.35,4.39-1.45,8.87-2.65,13.42-3.53,1.12-.22,2.25-.39,3.38-.59,3.7-.66-2.92.18.8-.09,2.22-.16,4.43-.37,6.66-.41s4.35.03,6.52.22c.88.08,4.07.72.55.03,1.03.2,2.07.37,3.1.6,2.04.46,4,1.12,5.98,1.78,2.68.89-2.18-1.28.49.24.9.51,1.84.95,2.73,1.47s1.75,1.13,2.62,1.7c2.34,1.52-1.64-1.73.51.45,1.42,1.43,2.86,2.77,4.18,4.3.63.76.49.57-.42-.58.34.47.68.94,1,1.43.62,1.02,1.29,2.01,1.88,3.05s1.17,2.2,1.72,3.32c.4.88.37.77-.09-.34.34.83.65,1.68.95,2.53,2.56,7.03,9.41,11.78,17.05,9.68,6.78-1.86,12.26-9.98,9.68-17.05-4.66-12.77-11.88-23.71-23.33-31.32-9.32-6.2-20.79-8.83-31.85-9.2-22.21-.74-44.84,7.56-63.81,18.55-6.47,3.75-8.74,12.52-4.97,18.96s12.46,8.74,18.96,4.97h0Z"/>
  <path class="st2" d="M264.93,99.1c.31-.47,3.14-4.4,1.56-2.39.89-1.14,1.85-2.23,2.82-3.29s1.95-2.05,2.99-3.03c.58-.55,1.17-1.08,1.78-1.61-.02.02,2.77-2.22,1.36-1.16-1.1.83,1.91-1.29,2.43-1.63,1.3-.84,2.64-1.64,4.01-2.38s2.76-1.4,4.16-2.06c-2.53,1.19,1.12-.41,2.09-.75,2.76-.96,5.59-1.74,8.45-2.35,1.35-.29,2.7-.51,4.06-.76,2.65-.48.37-.04-.15.01.99-.1,1.98-.21,2.97-.29,6.3-.5,12.55-.21,18.83.38.56.05,2.71.39,0-.02.82.12,1.64.25,2.45.39,1.43.24,2.86.51,4.28.8,3.26.67,6.49,1.48,9.69,2.41,3,.87,5.96,1.85,8.89,2.93,1.36.5,2.71,1.04,4.05,1.57,2.02.8-1.87-.84.11.05.93.42,1.87.83,2.8,1.27,5.61,2.62,11.05,5.64,16.21,9.06,1.12.74,2.24,1.51,3.33,2.29.62.44,1.23.9,1.84,1.35-.54-.39-1.73-1.82-.13-.1,1.04,1.12,2.11,2.2,3.12,3.35.6.69,1.19,1.39,1.76,2.1,1.55,1.94-1.66-2.57.83,1.16,4.94,7.39,8.32,13.54,10.39,21.34,1.91,7.19,2.19,14.86-.43,20.66,8.44,3.56,16.89,7.12,25.33,10.68,10.07-31.47,17.47-63.7,22.21-96.4-7.72,2.04-15.44,4.08-23.17,6.12,1.55,1.97,3.49,6.98,3.84,10.27-.09-.83.02,2.73.02,2.75,0,.4-.29,3.74-.14,2.75-.19,1.27-1.39,4.98-2.26,7.07,9.07,1.23,18.15,2.46,27.22,3.68-.48-19.77-14.72-37.85-34.42-41.67-10.98-2.13-18.85,6.3-17.05,17.05,2.28,13.63,4.57,27.25,6.85,40.88,1.12,6.71,9.03,10.86,15.21,9.93,6.93-1.04,11.73-6.56,12.02-13.61.93-23.29-1.45-46.67-6.8-69.36-5.68,5.68-11.37,11.37-17.05,17.05,4.34,1.66-3.93-3.61-.7-.25,6.53-6.53,13.07-13.07,19.6-19.6-11.79-10.14-25.18-18.12-40.29-22.17-14.08-3.77-28.45-3.92-42.77-1.78-27.96,4.17-53.87,19.34-74.68,37.97-11.91,10.66-22.33,23.12-30.85,36.63-3.99,6.33-1.33,15.27,4.97,18.96,6.66,3.9,14.96,1.38,18.96-4.97,1.56-2.48,3.18-4.91,4.87-7.3.79-1.12,1.6-2.22,2.43-3.31.95-1.26.12-.16-.06.07.57-.73,1.15-1.45,1.74-2.16,3.86-4.72,7.98-9.21,12.34-13.46,9.25-9.03,16.39-14.59,27.64-21.19,11.07-6.5,18.78-9.86,31.34-12.83,1.54-.37,3.1-.7,4.66-.99.63-.12,3.86-.67,2.83-.52s2.2-.25,2.85-.31c1.79-.16,3.57-.28,5.37-.34,2.68-.09,5.37-.06,8.05.1,1.34.08,2.68.2,4.01.33,1.64.15-.08-.04-.35-.08,1.11.16,2.22.35,3.33.56,13.39,2.53,24.12,7.89,34.02,16.4,5.67,4.88,14.03,5.57,19.6,0s5.2-14.19,0-19.6c-3.36-3.49-7.08-5.18-11.53-6.88-10.43-3.99-19.26,7.66-17.05,17.05,4.8,20.39,6.64,41.06,5.81,61.99,9.07-1.23,18.15-2.46,27.22-3.68-2.28-13.63-4.57-27.25-6.85-40.88-5.68,5.68-11.37,11.37-17.05,17.05,1.39.27,2.73.61,4.08,1.01,3.03.91-.87-.88,1.77.86.03.02,3.48,2.4,1.75,1,1.08.88,2.04,1.89,3,2.89,1.71,1.79-.07-.74,1.16,1.63.22.42,1.95,3.85,1.05,1.66.44,1.07.71,2.21,1.01,3.32.19.98.23.9.11-.25.1.94.15,1.88.14,2.82.17,6.85,5.14,12.79,12.02,13.61,7.38.88,12.5-3.36,15.21-9.93,7.05-17.12,2.49-35.72-8.59-49.82-6.1-7.76-21.74-3.73-23.17,6.12-4.74,32.7-12.15,64.93-22.21,96.4-2.08,6.51,1.9,13.89,8.02,16.35s14.43.7,17.31-5.67c9.15-20.26,5.77-41.87-4.47-61.09-4.09-7.68-9.47-15.62-15.97-21.45-5.7-5.12-12.65-9.37-19.37-13.02-27.02-14.67-60.73-22.49-90.95-13.98-18.22,5.14-33.27,16.51-43.65,32.25-4.12,6.25-1.24,15.33,4.97,18.96,6.77,3.96,14.83,1.29,18.96-4.97h0Z"/>
  <path class="st2" d="M419.85,167.16c.26-3.01.17-.96.05-.42.24-1.1.51-2.18.84-3.26.26-.85.56-1.7.88-2.53.88-2.26-1.52,2.64.5-.99s4.02-7.21,6.13-10.77c4.86-8.22,10.37-17.99,10.5-27.78.24-18.44-8.77-36.28-22.14-48.61-6.62-6.11-14.18-11.31-22.14-15.49-8.86-4.65-17.66-7.23-27.53-8.7-20.23-3.02-40.49-2.92-60.55,1.4-21.33,4.6-41.17,14.47-57.54,28.89-5.62,4.95-5.06,14.54,0,19.6,5.58,5.58,13.97,4.96,19.6,0,10.9-9.6,24.6-16.41,39.27-20.31,15.77-4.19,31.12-5.04,48.29-3.28,6.16.63,15.11,1.75,20.66,4.42,3.19,1.53,6.31,3.2,9.35,5.03,1.59.96,3.16,1.96,4.7,3.01.57.39,1.13.8,1.7,1.19,3.5,2.42-1.67-1.57,1.54,1.18,2.56,2.19,5.04,4.44,7.31,6.95.59.66,1.17,1.33,1.74,2.01,1.45,1.71-1.02-1.49.26.33,1.14,1.62,2.23,3.27,3.2,4.99.45.81,1.93,3.74,1.64,3.09-.63-1.43.43,1.13.54,1.45.3.85.58,1.7.83,2.57.46,1.55.79,3.1,1.14,4.67.6,2.69.21,1.17.13.51.16,1.4.33,2.95.29,4.37,0-.24.34-1.71,0,.06-.24,1.23-.72,2.41-1.09,3.61-.41,1.33-.88,2.31-2.12,4.69-1.84,3.54-3.95,6.93-5.98,10.37-5.16,8.76-8.8,17.56-9.69,27.76-.65,7.47,6.84,13.86,13.86,13.86,8.04,0,13.21-6.37,13.86-13.86h0Z"/>
  <g>
    <rect class="st1" x="164.55" y="166.8" width="136.22" height="93.38"/>
    <path class="st3" d="M200.98,174.98c-.26-.9-1.16-.77-.51.13-1.15,1.15-.51,1.28-1.67.13,0,.64-.77.38-1.15.77-.38-.38-.9-.38-1.41-.51-.51-.13-1.03-1.15-1.67-.38-.13.13-.26-.13-.38-.26-.64.64-.64.13-.77-.38-.26,0-.51.26-.38.64-.64.26-1.92.9-2.18-.13-.64.77-1.41,0-1.92.64-.51-1.15-.51-.13-1.15.38-.13-1.03-.77-1.92-1.28-.51-.38-.51-.64,0-.9.26-.26-.26-.9.13-1.15-.38-1.28,1.03-.77-.51-1.15-1.28-.26.51-1.67,1.41-.77.26-.39-.26-.64-.13-.9-.13.26.51.51.38-.13.64-.13.39.77.9-.26,1.03,1.54,2.18-.77,1.03-1.28,2.69.38.51.77-.13.38.77.38.64-1.15,1.28-.13,1.8.13,1.03-.64-.38-.51,1.28.64-.13,1.54,1.03.64,1.15-.13.13.26.13.26.26.26.26-.38.51,0,.77-1.28,1.15-.51.38-.26,1.41-.51.26-1.67.39-1.28,1.28.13.13.13,0,.26-.13.51.51,2.57,1.03,1.54,2.05-.26,0-.38-.26-.51-.26-.9.13.26.9-.38,1.41.51.64-.38.77.26,1.54.13.38-.64,0-.51.51-1.41-1.54-1.54,1.67,0,.51.13.38-.13.51-.38.64.26.51,1.67.64.9,1.15.13.38.38,1.28-.51,1.03,0,.64-.38,1.03-1.03,1.15.13.26.38.13.51.26,0,.38-.38.13-.51.38v.26c.51-.13.9-.39,1.41-.13-.64.9-2.44,1.67-.38,1.92-.51.38-.77.9-1.41,1.15.26.26.51-.13.77.13.13.26.13.38-.13.51.38.39.51.77,0,1.03.13.13.38.26.26.64-.38,0-.51-.51-1.03-.26.26.26.38.64.51.9-.38,0-.51.13-.64.51.39,0,.13.64.51.51.13.38-.26.51-.26.77.38.51.77.26,1.03-.13-.64.26-.38-.51-.77-.64-.13-.77.38-1.03.77-1.41.26.38.26.77.51.26.77-.13,1.92,1.67,2.44,1.15.13-.64-1.03-.13-.38-.9-.51-.51.38-.77.77-.26.51-.51,1.28-.26,1.67-1.03.13.51.64.13.9.39,0,.26-.51.38-.13.64,2.05-2.31.77,1.92,1.92,0,.26-.26.38.26.77.13,2.31-.9,1.8.38,2.57.77.39-.51,1.03-1.54.51-2.05.77-.51,1.41.77,1.92-.51.26.51.77.13,1.15.38-.64.51.13.77.77,1.28,1.03-2.31,1.92,1.03,1.92-1.54,2.18,2.95-1.16,2.31.77,4.49-.26.26-.64.26-.64.77-.9-.13-.64-2.05-1.92-1.41.51.13.77.38,1.15.77-1.41.39-1.54-.9-2.69-1.03,1.41,1.41-.26,1.03-1.15,1.67-.39-.13-.26-.64-.64-.77-1.28,1.03-.77-1.15-1.54-.26-.51.13-.51.64-.51,1.28-.9.51-2.31-1.8-3.21-.51.26.13.51.26.64.26-.64,1.03-1.41.9-1.54,0-1.92,2.05-.64.77-1.92-.13-.38.13-.13.77-.38,1.03-.26.13-.38-.13-.64-.26-.64.77-1.54-.13-2.31.13-.38.64,1.03.77-.38.77-.26-.38-.38-.64-.77-.9.38-.13-.13-.39.26-.77-.26-.38-.77-.51-.9-1.03-1.8.26-.9,3.08-.26,2.05l.39.38c-.51.39-1.41.77-1.16,1.54-.26.38-.9.13-.77.64.26.26.38,0,.64-.13.51.26.77.51,1.28,1.41-.26.38-.39-.64-.77,0,.26.51.38,1.15.13,1.8.38,1.15,0,1.54-1.41,1.54.51.26.38.64.51,1.03.9.64.77,1.41-.13,1.92,1.54,1.03-.13,1.67-1.03,2.18.64.51-.64.13-.13.77.26.26.13-.38.64-.13.51.64-.51.38-.38.9.77.26,1.41,1.28.64,1.54-.13.13-.26.26-.38.26-.13-.13-.13,0,0,0l.38-.26c-.51-.26-1.28.13-.38.26.38.13.26.38.51.51-.51.77-.51,2.31-.13,3.21-.26.26-.13.64-.51.77.51.64.77,2.44,0,2.18-.51.13,0,.64-.51.64.77,1.41-.9,2.05.9,3.08.13,0,0,.13,0,.26-.51.13-.64-.64-1.16-.51-.26.51.26.51.38.9.13.38,0,1.03.64,1.54-1.03.77-.77,0-1.92.51.38.51.51.13,1.15.26.26.38.26.9.26,1.41.9.77.38,1.54-.64.77-.64.77.38.51.26.64.13.77-.64.51-.64,1.03.51.38,1.28.77,1.03,1.54-.51-.38-.77.26-1.41.13.51.51.9,0,1.15.26,0,.38-.38.51-.77.51-.26.13.13.77-.51.51-.26.38,1.15.64.9,1.03h-.51c-.38-.13.26-.26.13.9.51.26-1.16,1.28,0,1.16-1.67.64.64,1.92-1.16,2.31.13.38-.13.64-.26.9.26,0,.39.38.51.26q.51-.64.13.13c.26.77-.77,1.16-1.03,1.67-.26-.51,0-.9-.26,0,.13.13-.51-.13-.26,0-.13.9-1.28,1.41-1.54,2.18-.26-.13-1.28-.64-.77-1.15-.26-.51-.77-.51-.26-1.15-.77-.9.39-.9-.38-1.54.64-.26,1.03-.13.64-.64-.13-.38.64-.51.38-.9-.38-.13-.38.64-1.03.38,0-.77.64-2.44,1.16-2.31.13-.9-.9-.38-.38-1.28.13-.64,1.15-.26.51.38.77.38.38-1.54,0-1.92.38-.13.64-.26,1.15-.26-.64-.26-.9-.38-1.28-.51l.26-.9c-.13,0-.26,0-.38-.13.26-.51.64-.64.77,0,1.41-.77-1.03-.64-.51-1.41.51.38.64,0,1.28-.26q-.38-.26-.26-.51c-.26-.13-.51-.26-.51-.64-.26,1.54-.77.13-.64-.64.51-.38.64.51,1.15.26,0-.51-1.15-1.41-1.8-1.67.26-.9,1.41-.77,1.67-1.54-1.28-.38-.39-2.69.26-1.15,1.54-1.28-1.28-.13-1.15-2.18.9-.51.26-.26-.26-.38,0-1.03.77-2.05,1.67-1.92-.38-.64-1.41,0-1.03-1.16.51.13.64.26,1.03-.26-1.92-.38.13-2.18-.9-2.31-.51-.77,1.41-1.54,0-1.8.51-.26.9-.64,1.28-.26.26-.13.38-.77.9-.51l-.13-1.28c-.51-.13-2.57-.64-1.03-1.41-.26-.26-.39-.51-.64-.77,1.67-1.15-1.28-2.69,1.92-2.69v-.26c-.13-.26-.38-.13-.64-.26-.26-.13.13-.77-.38-.64,0-.51.38-1.15.13-1.67-.64-.9.13-2.57.64-3.34-.13-.38-.64-.77-.13-1.28l-.51-.13c.26-.38.38-.64.64-.13.9-1.03-.38-.77.51-2.05-.38-.26-.64-.13-.13-.64.26.13.38.51.64.13-1.54-.9,1.67-1.8,0-2.31-.13-.26,0-.38.26-.64-.9-.26-.64-1.15-.64-1.8.13-.26.13.13.39.13.13-.38,0-.77.13-1.15.51-.38.26.9.9.51.26-.64-.13-1.54-.13-2.18-.38-.26-.9.13-.64-.64-.9-.13-.77-.9-.9-1.41,0-.26.51.13.51-.26.26,0,.38.38.77,0-.38-.13-.64-.64-.77-1.03.77-.26.77-1.15,1.41-1.54-.38-.38-.9-.13-1.41-.13q.9-.64,1.92-.38c-.38-.51-.51-.77-.38-1.41-.26-.39-.64,0-.77-.26-.26-.26-.38-.38-.64-.38,2.57-2.31-.13-1.28,1.67-4.36-.26-.77-.9-1.28-.38-2.05-.64-.51-1.15-1.54-.38-2.18-.77-.64.38-1.28,1.03-1.54q-.38-.38-.77-.38c.51-.64.38-1.15-.38-1.41.64-.64,1.67-1.54.13-1.8.13-.51,1.41-.64.77-1.03,1.54-1.92-1.54-1.03.64-2.44.13-.51-.26-.64-.26-.77-.26-.9.77-1.28-.13-1.8.51-.64,1.15-.51,1.67-.51.51-.38.77-.77,1.41-.38.13-.9-.51-.9-1.15-1.28-.26-.51.64-.64.26-.9,1.03.38,1.03.64,1.15-.64.77-.38.64.26.38,1.03.51-.26,1.8.77,1.03-.38.64.13,2.05-.26,2.18.51.13,0,.13-.13.26-.26,1.28,1.28.51,1.03,1.92.77-.13-.9.26-1.67,1.03-.9.64-.13.9.9,1.54.38.13-.38.38-.51.38,0,.39.26.9-.13,1.16.39.26-.13,0-.64.38-.51.38-.26.13.26.38.38.38,0,1.03-.13.9.38,1.54-.51,2.95-.26,4.49-.38.9.13,2.18-1.28,2.57-.13.38.13.38-.38.64-.51.51.26,1.41.77,1.54-.26.26.38.51.64.51,1.15,1.15-.77,1.28,4.36.13,3.85ZM170.96,252.34c-.26-.13-.38-.26-.51-.38-.38.51,0,.9.51.38ZM172.12,242.85c.26.51-.38.77-.26,1.03.13-.51,1.16-1.15.26-1.03ZM172.5,251.19s.13.13.26.38c.26,0,.38-.26-.26-.38ZM176.61,220.65c.13,0,.13.13.38.26,0,.13-.26.38-.38.38-.13-.26-.26-.38,0-.64ZM177.63,204.23c-.38.64-.9,1.8.26,1.67.38-.64-.38-1.03-.26-1.67ZM177.76,207.44c.38.38,0,.64-.39.51,0-.39,0-.51.39-.51ZM179.68,184.09q0-1.03-.77-1.03c0,.51.51.64.77,1.03ZM180.84,176.77c-.51,0-1.28-.26-.51.39.13-.13.38-.39.51-.39ZM180.07,175.24c.26.13.39.38.77.26.38-.38-.26-.64-.77-.26ZM180.2,181.14c-.26-.64.77-.77.64-1.41.64.38.13,1.28-.64,1.41ZM180.84,173.31c-.13.26.13.38.38.38.38-.26-.13-.77-.38-.38Z"/>
    <path class="st3" d="M207.53,250.03c-.64,2.95-1.8,2.05-3.85,3.34,0,.38.64.51.38.9-.9-.38-.51.26-1.41,0,.26-1.41-.77-1.92-1.28-.38-.38-.51.26-.9.13-1.28-1.16-.13-.38,1.03-1.8-.51-.13-.38.38-.51.51-.77-.38-.38-.51,0-.64.13-.38-.26-.51-.64-.13-.9-.26-.51-.9-1.54.26-1.41-.13-.9.38-.77,1.03-.9.13-.51-.64-.64-.51-1.15.26-.13.38.38.64.26.26-.13.38.13.51.26.26-.38.51-1.41.9-.9.26.26-.38.26-.13.51.51.13.64-.51,1.16-.51,0,.26.13.39.26.64.26-.77.51-1.54,1.15-.64,1.03,0,1.41.9,1.28,1.8.51,0,1.03.38,1.67.38-.38.38-1.03,0-1.03.9,0,.26.64,0,.9.26Z"/>
    <path class="st3" d="M289.77,173.44c-.38.38-.38.64-.26.9-.13.26-.26,1.28-.77.77-.38,0,0,.51-.38.51.26.38.9.26.64,1.03-.77.77-1.41.26-1.92,1.67,1.28.9,1.8,3.46,0,3.98.13.38.51.26.38.64-.77,0-.9.26-.9,1.15.51.64.26,1.41.77,1.92.13.26,0,.39-.26.51.51,1.03-.13.77,0,1.41.64.13.13.38-.13.64,1.41,2.18-1.54.77-1.16,2.05,0,.13-.26.13-.38.13-.51,1.15.13.38.64.64-.26,1.28.64,2.05-.77,2.44.13.26.38.38,1.03.9l-1.8-.26c.77.9,1.41,1.8,1.16,2.69-.9.51-.13,1.15-1.41,1.15.26.51,1.41.77,1.15,1.67-.13.26-.13,0-.26,0-.38.13-.77.13-1.28.38.39.64.13,1.41-.26,2.18,1.92.77.38,1.54-.64,2.69,0,0,.13-.26,0-.26-1.16-.13-.26,1.67-1.41,1.67.38.51.9-.13.9-.64,2.44-1.15.77,1.67-.51,1.41.13.38.26.26.51.38-.38.77.26,1.54,0,2.31-.26.64-1.54-1.03-.64.77-1.28.64-.51.26-.13,1.03-.77,2.05-2.31.13-1.41,3.21.26-.51.26-.77.64-.64.13.26-.26.9.26,1.15-.26.13-.51.13-.9.38.38.38.13,1.03.38,1.28-1.15.77,0,.9-.9,1.67.51.51-.26.26-.38.64-.26-.64-.26-.9-.9-.77,0,.26.26.51.13.77,0,.26-.51.38-.26.64.13.38.26-.39.64,0,0,.9.64,3.21-1.03,2.82,1.28,1.92-2.31.9-.26,2.31.39,0,.51-.38.9-.51-.13.77-1.15,1.28-1.54.77-1.16.9.51,1.8.9,2.82-.51.38-1.15.51-1.15,1.28.26.13.26-.13.38-.13.26.26-.13.77.26.9-.51.64-1.41.38-2.18-.26.64,1.41-.38,1.92-.51,3.08,1.15.13.9,2.18-.13,1.67.77,1.15.64,1.28-.77,1.67,1.16,1.28-.38,4.11-.77,1.41-.64.64-.38,1.28-.64,2.05.26.38.77.26.77.77-.77.26.13.64-.13,1.03-.13.13-.13-.13-.38-.13-.13.13-.38.13-.64.26.64.64-.77.51-.64,1.03.26.26.51,0,.64.13.26.77-.64,1.8-.38,2.69-.38.26-.26,0-.38-.13-.51.26-.38.77,0,1.16-.13.13-.38.26-.38.51-.51-.51-1.92-.13-.77.38-.26.38-.51.51-.77,0,.26,1.41-1.28,1.54-.38,2.69,1.03-.77.51.64.26.9.26.38.51.38.77.77-1.15-.13-.38,1.54-.9,1.67-.38-.38-.64.13-.9.13-.13,0-.26.13-.26.26-.13.51-1.15.77-.77,1.15.13.26-.51.26-.26.64,1.15,0,1.28,1.03.26,1.8.13.13.38.26.51.38,0,.64-1.92-.9-1.41.26-1.41.64,1.15.77-.26,2.31-.38-.38.13-.9-.51-1.15-.13.13-.51.26-.38.64-1.54.26-.51-.9-1.41-1.54,0-.51.38-.13.51-.38-.77-.51-.38-.77.38-.9.26-2.69-2.57-.64-1.92-3.59-2.82-1.03.64-1.28-.77-1.67-.26-.51.9,0,1.03-.77-.13-.38-.51-.13-.64-.26-.26.13,0,.51-.51.38-.38-.13-.9-1.16-.38-1.41-2.82-3.34,3.46-.9-1.03-4.11,1.41-.13.51-.38.26-1.15.38-.13,1.54-1.41.64-1.16-1.41-1.16-.77-.64-.51-1.54-.77-.38-.77-.26-.77-1.41.26-.39,1.92-.9.77-1.16.9-.9-.38-.9-.64-.13-.26-.26,0-.64-.13-.9.64.13.77-.51.38-1.03.77-.51-.38-.26-.77.13-.13-2.05-.26-4.36-1.16-6.41.13-.26.51.13.77,0,.13,0,0-.38,0-.51.64.26.9-.51,0-.51,0,1.16-.13-.13-.77.13.64-1.8-1.54-2.44-.26-4.11,1.15-.13-.26-.38-.77-.38,0-.77.77-1.28,1.67-1.67-.64,0-1.15-.26-1.41-.9h1.03c-.13-.77-1.54-.64-.26-1.15-.13-1.28-1.03,0-1.54-.77q.51,0,0-.77c.26-.26,2.18-.51,1.15-1.8-.51.77-.64.64-.77-.13-.64-.26-.38-1.03-.26-1.54-.9-.39-.13-.51-.77-1.03,2.31-.77.77-3.85.64-2.31-.51,0-.13-.38-.51-.38-.51.51-.26-.26-.51-.38.13-.26.51-.64.13-.9.51-.26.38-.64,0-1.03.9-.26,1.03-1.28,1.92-1.28-.51-.13-1.03-.51-1.16-.9-.26.38-.64,0-1.03-.13,2.18-3.85-.26,0,.64-3.72.26-.26.38.13.64.13.13-.77-.64-.64-.9-1.03-.77.64-1.16-.77-.13-.51-.13-.9.64-1.03.77-1.54,0-.64-.77,0-.77-.64-1.92,1.92-.9-2.31.64-1.41,0-.38-.26-.51-.13-1.03-.9-.38-1.67-.9-2.05-1.41.64.13,1.28-.26,1.8-.64-.26-.51-1.41-1.67-.64-1.03.38-.26.77-.51.38-.9,0-.38-.13-.51-.51-.26.51.77-1.92,1.15-2.05,2.44.64-.13,1.15-.64,1.03.39-.38.13-.64.38-.64,0-.77.77,1.03.38-.38,1.41-1.03-.9-.26,1.03-.9,1.15.38.38-.13,1.03.38,1.41-.64,0-.64.9-1.28.9-.38.26-.26.39,0,.51-.26.26-.51.38-.26.64.64-.64.26.26.77.26,0,.26-.13.51.26.64-.64.51-.64,1.67,0,2.05-.38.39-.64.13-1.03.26-.26.38-.77.51-1.28.64.51.39,1.15.64.9-.13.39-.13.51.13.64.38-.13.9-.9.51-1.28.51-.13.51.13.51.26.9.26-.13.13-.38.26-.51.9.39.64,1.92-.13,1.03-.38,0-.51.39-.9.51-.13-.13-.13-.38-.64-.13.26.64,1.16.38,1.28,1.15.13.26-.38.26-.26.64.26.38-.51.26-.13.64,0,1.8-1.67,1.92-1.54,2.95,2.05.13-.64.64-1.28.77.26.51.51.64.77.38,1.03.64-.77,2.44-1.8,2.69-.38.51,1.28.77-.13,1.03,1.16.64,1.16,3.08,0,3.33.13.26.64.38.38.9-.51.38-.38-.51-.9-.13-.77.64.9.38.13,1.03-.26,0-.38,0-.38.26-.38,0-.9-.38-1.03,0,.26.38.64.51,1.03.26-1.15,1.92.38.64-.13,2.31l-.26-.26c-.51.26-.51,1.92-1.15,1.16-.26,0-.51.38-.77.13,0,.38-.13.51-.26.64.51.38-.13,1.28-.77,1.03-.26.64.64.38,1.03.51q0,.64.51,1.16c-.26,1.03-1.8.51.13,1.41-.38.26-1.15.9-1.41.26-.77.13-.51.77-.9,1.16.51.38.13,1.03.13,1.54.26.13,1.03,1.41.38,1.15-.26-.77-.51-.77-1.03-.38.64.51.51,1.67-.26.77-.77.64,1.92,1.41.38,1.67-.26.64-.77.9-.64,1.54-.64.26-.64,1.16-.26,1.8-.26.38-.77,0-.51.64-.64.13-.38.9-.77,1.03.13-.64-.64-.77-.51-.13.51,0,.77.38.26.64.9,2.82.77,1.54-1.15,2.57-.77,1.41,0,.26,1.28,1.16-.9.38-.51,1.41-1.03,1.92-.39,0-.9-.13-1.16.13-.77-.77-.51.51.51.26.64,1.92-.77,1.03-.13,2.05-1.54.64-2.95.26-4.11,1.8-.64-.64-.51-1.54-1.15-2.44.51,0,.64-.51,1.41-.64-.51-.26-.9-.51-1.03-.9-.51.38-.77-.13-1.28-.26.77-.64-.38-.13-.26-.77l-.26.39c-1.16-1.8,1.8-1.41-.38-1.8-1.41-1.92-1.16-1.15-.13-2.44.77,0,1.03,0,.38-.77.9-.77-.38-1.28-.38-2.31-.26.64-1.67.51-1.15.13-.38-.77.64-.9.77-1.8-1.28.13-.9-.9-1.54-1.8.38-.26.64,0,.64-.64-1.41,0,.51-1.54.26-.13.26-.26.77-.26,1.16-.51-.77-.26-.9-1.28-1.8-1.28.13-.9.26-2.18.26-3.34-.77.26,0,.77-.77,1.03-.13-.51-.51-1.16.13-1.67-.26-.38-.64-.9-.26-1.28,1.15.51.38-.64-.39-.9.39-.26.9,0,.9-.51-.51-.26-.26-1.03-.64-1.41-.64.77-.64-.13-1.15-.64.38-1.16,1.28,0,.9-1.8-.38-.13-.51,0-.51.13-.64-.26.26-.38-.9-.51-.38-1.28,1.41-.9-.13-1.92.13-.26.51,0,.64-.26.26-.26-.38,0,.26-.64-1.28,0-.64-1.54-1.8-1.15-.13-.51.77-.9.38-1.67-.38-.51.26-1.03-.26-1.54.64.26.77-.64.13-.38-.13-.13-.38-.64-.77-.51,1.15-.77.9-1.03-.38-1.03-.26-.26-.51-.64-.13-.9.13-.26-.13-.13-.13,0-.9-1.41-.26-1.92-.13-3.21-1.03-.77-1.03-1.8-.26-2.69,1.28,0-1.28-2.05-.38-3.46h-1.41c2.31-.64.38-1.15.51-2.44q-.38.26-.64.26c.26-.77,0-1.67,1.03-2.05-.9-1.15-.26-.64-1.03-.26-.38-.26,0-.64-.38-.77,1.92-1.67,1.54-.38.64-2.18-1.03.9-2.05-1.03-.77-1.28-1.28-.77.26-1.28.26-2.18-.64,0-2.31-.26-1.03-.77,0-.51-.26-.26-.51-.26.13-.51-.13-.9-.38-1.41,1.03,0,.38-1.41.64-1.92-1.67,0-.64-.26-1.41-.64.39-.39.51-.77.64-1.15,2.18,1.92.9-1.03,1.03-1.92-1.03-.26-.51-.51-1.15-.9-.13-.39.64.26.51-.51-.39-.51-.9.13-1.16,0-.38-.51.26-.51.26-.64-.51-.64-1.67-1.41-.51-1.54.26-.26-.13-.26-.13-.51s-.26-.26-.38-.26c-.51-.26-.26-.9-.64-1.15.38-.26.38-.64.51-1.03.51.26.9.26,1.03.64.64-1.03-.64-.9-1.03-1.41,0-1.03-.13-2.18-.64-3.21-.13.13-.26.13-.26.26-.38-.77.77-1.15.13-1.67,1.28-.26,0-1.41-.51-1.67.51-.77-.77-2.05-.51-3.21,1.03-.38,1.41-2.05.51-2.57-.13-.64.64-.39.64-.9,1.15-1.28.26-.51.13-1.54-.38-.26-.9.13-.77-.51.64.38,1.41,0,2.18.13.26.51-.13,1.15.26,1.54-.38.64.51.64.51,1.03,1.03-.26-.26-.77.13-1.41.9.51.38,1.8,1.54,1.8,0,.9.13.64-.51.51-.38,0-.26.64-.77.51-.26-.51.26-.9-.39-1.03-.38.38.51.77-.38.9.13.51.64.26.64.77.26,0,.13-.51.64-.38.26.13,0,.38,0,.64.51.38,1.15.9.51,1.41.64.9-.51,1.8-.38,2.69.38.9,1.54.13,1.28,1.15.77,0,.64,1.15.51,1.8-.51,0-.64.64-1.16.77.77.51,0,.64,0,1.15,1.03-.26,2.18,0,.9,1.03.64.13.64-.13-.26.77.38,1.28-.38.77,1.15,1.15,0,.39-.38.51-.38.77.13.64.77.38,1.28.64-.38.26-1.03.38-1.41.77.51.26,1.92.26.9.77.38.64-.51,1.15-.39,1.92.51.51,1.16-.51,1.67.26,0,.13-.38.13-.51.39,1.28,0,.77,2.44-.51,2.18.77.77.39,1.41.77,2.18,2.18-1.41-.9,3.21,1.54,1.92,1.54,1.67.13.64.38,2.18-.38,0-.26-.38-.51-.64-1.03,2.05-.26.9.9.77.13.26-.38.13-.38.26.13.51.38.64.64.77.9,1.15-.26,1.03-.77,1.8-.13.38.26.38.51.64.38.64-.26.77-.64,1.15-.13.38.51.13.38.64.51-.51,1.03,0,1.15-.64.77.26.26,1.41-.26,1.8-.13-.38-.13-.64-.64-.64.13.51,0,.77.64.64,0,.64-.77.64-.64,1.41.26-.26.38-.26.9-.51-.38,1.15-.38,1.54.77,1.41-.26.38.51.9-.13,1.15.26.26.51.77.9.51.13.51-.38.51-.13.9-.51.26-.77.77-1.54.9.13.26.38.26.64.38-1.16.9.38.77.64.13.51.38.64.77.38,1.15,1.54.26,0,1.15-.51,1.54-.26-.51-.51-.26-.64.13,0,.51.64.26.64.64,1.41-1.15.38.26,1.41.38-.64.64-.26,1.15.38,1.8-1.15.13-1.03.64-.26,1.03-.39.38-.77.38-1.41.38.64,1.03-.51-.26.51,1.8.13-.64.77-1.03.38-1.54,1.03-.26.64,1.15,1.28,1.8.13.64-.38,1.15.13,1.8-.26.51-.77.26-1.15.38.51.51.38.26.9.26.51.51-.38.64-.13,1.28.26.51.77-.26,1.15,0-2.57,2.05-.26,1.67.77,2.95-1.16.26-2.82,1.28-1.16,2.31.51-.64.77.64,1.28,1.03-.26.26-.64.26-.77.77.26.38.64.26.9.38.26.13-.13.51.26.64-1.15.9,1.54,2.95-.38,3.46-.13-.77-.51-.51-1.28-.13,1.03.13,1.28,0,1.28.77.51.64,0,.9-.13,1.28.38.64.51.64,1.15.64.13.26.13.64-.26.77.77,1.03.51.9-.38,1.16,1.8.38.51.26,1.16,1.41-.77.38.26.77.38,1.28-.64,1.28.64.13.51-.64-1.03.64,0-1.03.51-.9.51-.77.13-1.03,1.03-.51.13-.77-1.03-.77-1.03-1.54.38-.13,1.15-.38.26-.64-.26-.38.13-.38.39-.64-.51-.9-.26-1.15.77-1.03.13-.26,0-.38.13-.64-.38-.38-1.15-.51-.38-.9,1.41.77.13-.9-.38-1.54,3.59-.13-.13-2.44,2.44-2.31-1.92-1.54.26-2.31,1.8-2.57-.38-.38.51-.77.77-1.03,0-.64-.51-.9-.38-1.54-.26,0-.9-.13-.77-.26.38-.64,1.28-1.28.51-1.8.51-.51,1.54-3.08,1.54-1.15.26,0,.26-.38.64-.13.26-.51.26-1.41-.26-.64-.13-.64-.51-.9-1.41-.77,1.16-.51,1.16-.64,1.92,0-1.67-2.05-.26-1.03,1.03-1.41-.38-.38-.77,0-1.03-.26,0-.38-.26-1.28.38-1.03.38-.9.64-1.15,1.67-1.67-.51-.38-.77.13-1.16.13-.26-.38-.38-1.15.26-1.03.26-.64.26-1.28.9-1.67l-.64-.26c.9-.39,3.34-1.92,2.69-2.69.9-1.03-.38-1.41.77-1.8.26-.51-.38-1.28-.77-1.67,0-.64.77-1.15-.26-1.41.38-.26,1.15-.26,1.54-.77.38-.38.64-1.15-.13-.64-.13-.38-.26-.64-.64-.77.77-1.28,1.8-2.31.77-3.59.13-.51.38-.26.64-.26.26-.64.77-1.28,1.41-.77.26-.77-1.28-.64-1.03-1.41.39-.38.64,0,.9.13.26-.13.13-.26.13-.51,1.03-.13.13-1.41,1.03-1.8-.38-.38-1.54.13-1.28-.64.26-.26.64,0,.77-.13-.64-1.41-.26-.64,0-1.92.38-.13.9.13.77-.38,0-.26-.38-.13-.51-.38,0-1.03,2.69-.64,1.54-1.41.51-.26-.13-.51.26-.77-.51-.51-.51.64-1.15.77,0-.64-.39-1.41.64-1.28.13-.77,1.03-1.28,1.8-1.67-1.8-1.8-1.16-.9-.51-1.92-.13-.26-.51,0-.77-.39.38,0,.64-.13.9-.38.26.13.51.38.64,0-.39-.77-.9-1.03-.13-1.8-.64-.77-.13-1.28.64-.38.13-.39.26-.77.9-.64-.39-.64-.39-1.67.26-1.8,0-.38-.26-.51-.26-.77,0-1.92,1.03-2.05.77-2.69.38-.26.64-.13.9.26.51-.26,1.03-.77,1.41,0,.9-1.03,3.08.13,1.28.51.51.38.9,1.15.13,1.41.51.38.38.9-.13,1.28.51.39.13.9.51,1.15-.38.38-.51.64-.9.51-.13,1.41.26,0,.64.77,0,.64-1.54.9-1.54,2.05.26.13.26-.26.51-.13.13.38.13,1.15.64.38,1.28.9-.9,3.46.77,3.46,1.03,1.8-.77,3.08-1.15,4.75.38,0,.51-.38.9-.51-.39-.38-.26-.38.13-.64,1.15,1.41-1.03,1.41-.77,2.05,1.54,0,1.15.51.38,1.15.51.64,1.41.77,1.28,1.67-.26-.39-1.15-.77-1.03.13.38,0,.64.13,1.03-.13.9.51-.51,1.15-.51,1.8-.77,0-1.15.9-.38,1.41.13-.13.26-.26.64-.13-.13.13-.26.26-.26.38.38.26.77.51.51,1.15-.51,0-.51-.9-1.03-1.03,0,1.03.77,1.8,1.54,2.57-.77.26-.13.77-.51,1.03l.77.77c-.38.13-.26,1.03-.64.51-.13-.13-.26.26-.38.13-1.28-.26-.13,1.15.26,1.28.39.51,0,1.41.9,1.41.26,1.67-2.18.64-1.28,2.31.38.26.26-.77.77-.51-.26.51-.39,1.54.38.77.13.51,0,1.03,0,1.54.13.13.51,0,.51.38-.26.9-1.8.51-1.28,1.15-.26.26-.9-.13-.77.51.51.38.77-.26,1.16-.13.26.13,0,.26-.13.38.13.26.51.38.77.64-.9,0-1.28.64-.26.77,0,.26-.13.26-.26.26-1.03,0,0,.77-.26,1.28-.77-.39-.77-.26-.9.64.51.39.26.13.51.9.13,0,.13-.13.26-.26.26.51.26.9-.13,1.28.64.77-.13,1.92-.51,2.31q.51,0,.77-.13c-.13.64.38.51.64.26.38.26.13.38-.13.64.13.9,1.15-.38.77.51-.13,1.41-2.05,1.15.13,2.05-.51,1.15.26,1.41-1.28,2.31.26.13.26.26.26.26-1.41,1.03.13.51.26,1.54.38-.51.64.38.9.64,0,.13-.64.26-.38.51.13.26.13,0,.26-.13.38.13.13.64.64.64.64.9,0,2.31.38,3.34-1.03,0-.77,1.67-.13.9.38,1.16-.26,1.54-1.28,2.18.51.51.26.77.38,1.16.64,0,.38.77.26,1.15.38.38.64.64.38,1.41.9-.9,1.41.77.51,1.41.26.51,1.15.64,1.15,1.41-.64,0-1.54-1.28-1.03.13-.38.77.77.64,1.15.9-.51-.13-.9.77-.26.38.51.64.51,1.15,1.03,1.8.77-.13,2.57-.51.51-.9-.38-.38-.13-1.28-.64-1.8.51-.13.64-.77,1.16-.9.26-.13.13-.51.38-.64,0-.13.26-.26.13-.51-.51-.26-.38-.64-.38-1.15.38-.26.77.13.9,0-.26-.26-.51-.51-.64-1.03.64-.13.77-.9,1.28-1.03-1.28-.26-.51-1.03-.26-1.8.26-.26.51.13.64-.38-2.31-1.15,1.15-1.41-.64-2.69.64-.77,1.8-.51,1.8-1.8.77.26.77-.26,1.15-.64-1.15-.64.26,0-.64-.9-.26.77-.64-.26-1.41.38-.38-.38.51-.77.13-1.15,1.41-.26.13-1.03.51-1.92.26.38.51-.26.77.26.51-.13.38-.77.9-1.03-.26-.26-.77-.38-1.03,0-.77-2.31.26-.13,1.8-2.05-.39-.38-.77.38-1.16.38-.64-.51-.13-.64,0-.77-.64-.9,1.28.26.13-1.28.64-.26,1.8-1.41,1.28-1.92.13-.64.77-1.41-.38-1.54.26-.38.13-.77.38-1.15-.26-.13-.26.13-.51.13-.26-.51.38-.38.77-.51-.38-1.03.13-2.31,1.41-2.57v-.51c.13.26.26.13.38-.13,0-.26-.13-.26-.26-.26q-.26-.26-.13,0c-.38,0-.64.26-.9-.26.51-.51.13-1.03.64-1.41-.13-.13-.38-.26-.64-.38.64-.51.64.13,1.03.13.51-.13.26-.38,0-.77.38-.26.13-1.03.77-1.15,0,.77.38,1.15,1.15.51l.51.64c.64-1.03.9.13.51-1.41.64,0,.13-.64.64-.77.51.13.9-.64.64-1.03.64.26.64-.51.51-1.03-.51.13-.38.64-.51,1.03-.64-.13-.9,0-1.41.39.38.51.13,1.03.13,1.41-.26-.13-.13.26-.26.38l-1.28-.13c.13-.64.64-.9,1.15-1.03-.38-.51-.13-.51,0-.9-1.15,0-.26-1.15-1.28-1.03-.38-.13.51-1.41.13-1.92.13-.39.64-.26.77-.51,0-.51-.64-.26-.64-.77.38-.38.38-1.03,1.15-.77.38.26-.51,1.03.51,1.41.51-1.03-.38-1.92-.13-2.82.39-.13.39.51.64.13.13-.13,0-.13-.13-.38,1.03,0,.9-.9,1.41-1.41-.13-.39-.38-.77.26-.9-.26-.51-.9-.26-.38-.64,0-.64-.9-.38-.51-1.15.38-.38.51.38.9.26.26-.38.13-.77-.26-.9-.13-.51,0-1.15-.64-.51-.13-.13-.26-.26-.51-.38l.9-.38c-.26-.26-.38-.26-.51-.38.38-.26.64-.26.9.13.77-.26,1.8-.9.39-1.15-.13.26.38.51-.26.51-.51-.64.38-.9.38-1.41-.13-.51-1.03-.51-.77-1.03.77-.9,2.44-.77,2.18-2.18-1.28,1.03-.38-1.03.13-1.54-.77-1.41.9-.64.51-1.54-1.67-1.03.9-3.08.64-4.75.26-.51.64-.51.9-.13,1.16-.64-1.03-.26-.51-1.8.38-.26.77.13.9-.51-.64-.13-1.28-.26-.9-1.15,0-.51.9-.26.77-.9.51-.26.9.13,1.28.13.13-.38-.38-.26-.26-.51.51-.38-.77-.77-.77-1.15.13-.13.26-.13.51-.26-.26-.51-.51-.9.13-1.28.13-.26-.51-.51,0-.9.51.13,1.03-.26.9-1.03,0-.13-.26,0-.38.13-.13-.26-.51-.38-.64-.77-.26-.13.38-.38.26-1.03-.38-2.05,1.03-.77,2.18-1.8.51,1.15,1.41.13,2.18,1.03-.13.51.64.9.26,1.54ZM223.82,202.43c0,.39.13.64.38.9.26-.51.26-.9-.38-.9ZM228.44,239.64q0-.13.13-.13c-.13-.13-.13,0-.13.13ZM236.91,246.18c-.77,0-1.8-.64-1.03-1.28-1.03-.9-.9,1.28-1.67,1.54.38.38.26.64,0,.77.26.26.13.51.38.77-.13-.51.64-.38.64-.9,0-.26.39.13.51,0,.9-.51,0-.39,1.15-.9ZM236.39,240.15c.64.26,0,.64.51,1.03,0-.51.26-.77.38-1.28-.26.26-.51.13-.9.26ZM241.01,228.09c-.26.26-.13.77.26.77.26-.38-.13-.51-.26-.77ZM242.17,230.4c-.13-.26-.26-.51-.26-.64-.77.38-.26,1.28.26.64ZM243.07,224.89c.51.26-.26.38-.26.9,1.03,0,1.54-1.54.26-.9ZM245.63,213.34c-.38-.38-.9-.51-.77,0,.26.38.9.38.77,0ZM249.99,196.92c-.26,0-.39-.38-.64,0-.26-.26,0-.64-.13-1.03.64,0,.77.51.77,1.03ZM252.17,203.97c-.13-.64.38-.39.77-.39-.26.39-.51.51-.77.39ZM258.08,191.53c-.51,0-.9.13-1.28.26,0,.13.13.38.13.64.38-.51.9-.38,1.15-.9ZM260.64,204.62c.51.26.51-.26.26-.64-.13.26-.64.26-.26.64ZM261.54,217.32c.26.13.26-.13.38-.26,1.03,1.03-.64,1.67-.38.26ZM263.21,232.33c-.38-.13-.51-.64-1.15-.64.51.64-.13,1.67,1.15.64ZM264.36,239.77l.13.9c-.64-.13-.51-.51-.13-.9ZM265.65,249.78c-.13-.13,0-.51-.26-.64-.38.38-1.15.64-.51,1.28l.77-.64ZM266.54,247.72l-.26.26c0,.13,0,.38.13.51.26-.38.38-.51.13-.77ZM273.21,230.53c-.26-.13,0-.9-.64-.51.51.38-.39,1.92.64.51ZM274.88,217.7c-.64-1.28-.9,0-1.15.38.64,1.92.77,0,1.15-.38ZM275.91,223.6c-.64,0-1.03-.13-1.41.38.51.39-.51.9-.13,1.67.51-1.41.64-.13,1.28-1.15-1.15-.26-.51-.39.26-.9ZM275.52,218.34q.9-.26.9-1.28c-.51.51-.77.77-.9,1.28ZM279.12,205.13l.38.64c.26-.26,0-1.03-.38-.64ZM281.3,200.51c-.64,0-1.15-.13-1.15.39.51.13.77.13,1.15-.39Z"/>
  </g>
  <g>
    <path class="st3" d="M235.14,107.06c-.39-49.85-48.48-80.44-90.95-94.21-26.08-8.46-55.67-11.64-81.74-1.42-20.58,8.06-37,23.66-47.57,42.95-23.03,42.05-17.92,92.2,5.64,132.76,27.53,47.4,73.93,78.61,120.56,105.05,27.52,15.61,56.08,29.94,82,48.18,22.3,15.69,43.05,35.84,50.49,62.87,2.37,8.59,15.74,4.94,13.36-3.68-13.55-49.2-62.44-76.52-103.84-99.77-45.55-25.59-93.25-49.77-128.52-89.36C24.76,176.97,5.85,132.48,16.86,87.49c4.8-19.62,14.71-38.12,30.28-51.27,18.32-15.47,43.01-19.35,66.23-16.35,25.93,3.35,52.11,14.04,73.38,29.21,19.23,13.72,34.34,33.56,34.52,57.99.07,8.91,13.93,8.94,13.86,0h0Z"/>
    <path class="st3" d="M235.14,104.93c.34-44.71,47.13-72.83,84.9-84.82,24.26-7.7,52.01-10.09,75.04,2.72,17.32,9.64,29.74,26.52,36.77,44.81,7.52,19.57,10.13,41.24,7.16,62.02-3.38,23.6-13.51,45.9-26.92,65.43-29.71,43.28-75.04,70.93-119.47,96.92-46.18,27.01-104.37,56.49-119.07,112.7-2.26,8.64,11.11,12.32,13.36,3.68,6.4-24.48,23.02-43.7,42.31-59.34,21.62-17.53,46.45-31.07,70.39-45.08,47.09-27.54,94.23-57.1,125.33-103.19,27.02-40.04,37.98-90.76,20.27-136.84-7.74-20.15-20.44-38.53-38.73-50.43-23.18-15.08-52.07-16.14-78.33-10.04-47.79,11.12-106.45,46.3-106.87,101.44-.07,8.92,13.79,8.93,13.86,0h0Z"/>
    <path class="st3" d="M234.07,149.96c.33-28.29,26.62-48.5,50.83-57.89,27.96-10.85,62.31-13.54,84.07,10.71,17.14,19.1,21.59,47.77,14.76,71.98-8.15,28.94-29.48,52.65-53.1,70.34-30.97,23.18-65.87,41.28-100.44,58.41-7.99,3.96-.98,15.92,7,11.97,34.14-16.91,68.42-34.82,99.17-57.47,26.74-19.69,50.63-45.62,60.3-78.06,8.53-28.59,3.27-61.16-15.76-84.46-22.78-27.89-60.56-29.79-92.72-19.26s-67.54,36.04-67.98,73.74c-.1,8.92,13.76,8.93,13.86,0h0Z"/>
    <path class="st3" d="M235.31,150.8c-.42-35.71-33.4-59.67-63.98-70.76-34.28-12.42-76.74-13.09-102.44,16.58-20.95,24.19-25.96,59.07-14.87,88.77,12.53,33.53,40.03,59.32,69.71,78.1,33.08,20.93,69.59,36.37,105.25,52.28,8.08,3.61,15.13-8.33,7-11.97-29.07-12.98-58.29-25.85-86.23-41.16s-54.54-34.02-71.98-60.83c-15.69-24.12-21.44-54.2-8.44-80.87,6.02-12.35,15.33-22.68,27.67-28.9,15.74-7.94,34.57-7.74,51.44-4.15,30.29,6.44,72.6,26.73,73.03,62.91.11,8.91,13.97,8.94,13.86,0h0Z"/>
  </g>
</svg>