<?xml version="1.0" encoding="UTF-8"?>
<svg id="Layer_10" data-name="Layer 10" xmlns="http://www.w3.org/2000/svg" viewBox="0 0 1369.94 790.22">
  <defs>
    <style>
      .cls-1 {
        stroke: #ec3874;
      }

      .cls-1, .cls-2, .cls-3, .cls-4, .cls-5 {
        stroke-miterlimit: 10;
      }

      .cls-1, .cls-4 {
        fill: none;
      }

      .cls-6 {
        fill: #ec3874;
      }

      .cls-2 {
        stroke: #fff;
      }

      .cls-2, .cls-7 {
        fill: #fff;
      }

      .cls-3 {
        stroke: #ec6587;
      }

      .cls-3, .cls-8 {
        fill: #ec6587;
      }

      .cls-4 {
        stroke-width: 3px;
      }

      .cls-4, .cls-5 {
        stroke: #ffb5c9;
      }

      .cls-9, .cls-5 {
        fill: #ffb5c9;
      }

      .cls-10 {
        fill: #c0272d;
      }

      .cls-11 {
        fill: #ff7bab;
      }

      .cls-12 {
        fill: #e90000;
      }

      .cls-13 {
        fill: #22b473;
      }

      .cls-14 {
        fill: #ffaae1;
      }
    </style>
  </defs>
  <circle class="cls-11" cx="637.87" cy="435.35" r="29.11"/>
  <path class="cls-9" d="M642.48,463.85c-15.85,2.66-30.86-8.04-33.51-23.9-2.66-15.85,8.04-30.86,23.9-33.51"/>
  <circle class="cls-8" cx="637.46" cy="379.55" r="11.63"/>
  <path class="cls-11" d="M758.37,295.49c12.59,30.96-3.3,48.81-35.02,36.41,0,0-.98-.41-.98-.41l-2.12-2.12c-.21-.46-.58-1.4-.75-1.88-11.37-30,4.93-46.08,34.89-34.86.47.16,1.41.54,1.87.74,0,0,2.12,2.12,2.12,2.12h0Z"/>
  <line class="cls-4" x1="757.31" y1="294.43" x2="736.03" y2="315.71"/>
  <path class="cls-13" d="M724.58,326.85c13.07.3,26.84,10.46,31.22,22.74,0,0-1.77,2.43-1.77,2.43-7.31-.22-13.21-2.98-18.85-6.92-5.52-4.13-9.95-8.89-12.37-15.82,0,0,1.77-2.43,1.77-2.43h0Z"/>
  <path class="cls-13" d="M723.92,333.82c-11.85-5.61-20.27-20.41-19.31-33.45,0,0,2.6-1.5,2.6-1.5,6.59,3.17,10.87,8.08,14.42,13.97,3.37,6.01,5.49,12.16,4.89,19.48,0,0-2.6,1.5-2.6,1.5h0Z"/>
  <g>
    <ellipse class="cls-11" cx="681.74" cy="447.24" rx="8.06" ry="25.35" transform="translate(-95.46 200.75) rotate(-15.67)"/>
    <path class="cls-8" d="M692.27,453.34c1.65,5.9,1.19,11.19-5.18,12.97-6.36,1.78-9.29-2.55-10.95-8.45"/>
    <ellipse class="cls-8" cx="687.55" cy="467.95" rx="11.97" ry="8.81" transform="translate(-100.83 203.08) rotate(-15.67)"/>
  </g>
  <g>
    <ellipse class="cls-11" cx="702.75" cy="448.67" rx="25.35" ry="8.06" transform="translate(43.91 959.64) rotate(-70.35)"/>
    <path class="cls-8" d="M707.81,459.73c-2.06,5.77-5.5,9.82-11.72,7.59s-6.11-7.45-4.05-13.22"/>
    <ellipse class="cls-8" cx="695.52" cy="468.93" rx="8.81" ry="11.97" transform="translate(20.03 966.28) rotate(-70.35)"/>
  </g>
  <path class="cls-11" d="M628.29,293.37c30.96-12.59,48.81,3.3,36.41,35.02,0,0-.41.98-.41.98l-2.12,2.12c-.46.21-1.4.58-1.88.75-30,11.37-46.08-4.93-34.86-34.89.16-.47.54-1.41.74-1.87,0,0,2.12-2.12,2.12-2.12h0Z"/>
  <line class="cls-4" x1="627.23" y1="294.43" x2="648.51" y2="315.71"/>
  <path class="cls-13" d="M661.73,329.27c-4.3,12.35-18.19,22.33-31.22,22.74,0,0-1.77-2.43-1.77-2.43,2.45-6.89,6.89-11.66,12.37-15.82,5.62-3.99,11.51-6.74,18.85-6.92,0,0,1.77,2.43,1.77,2.43h0Z"/>
  <path class="cls-13" d="M658.02,332.32c-1.07-13.07,7.54-27.76,19.31-33.45,0,0,2.6,1.5,2.6,1.5.55,7.3-1.56,13.45-4.89,19.48-3.52,5.93-7.79,10.84-14.42,13.97,0,0-2.6-1.5-2.6-1.5h0Z"/>
  <path class="cls-11" d="M694.67,309.24c50.76,16.15,68.74,49.54,10.26,73.06-1.61.65-4.92,1.85-6.57,2.4-.9.33-2.76.93-3.69,1.2,0,0-1,0-1,0-4.28-1.31-9.06-3.03-13.15-4.79-53.72-22.92-37.49-54.45,9.56-70.66.88-.33,2.69-.93,3.6-1.2,0,0,1,0,1,0h0Z"/>
  <path class="cls-9" d="M694.57,339.43c10.09,2.51,20.83,5.98,29.23,11.61,10.67,7.48,11.28,15.62.45,23.23-5.58,3.81-12.66,6.64-19.2,8.71-1.74.54-5.8,1.78-7.53,2.18-.73.2-2.22.56-2.95.73,0,0-.8,0-.8,0-3.6-.78-8.14-2.17-11.67-3.27-6.1-2.06-12.8-4.76-18.01-8.35-10.83-7.61-10.21-15.75.45-23.23,7.59-5.12,17.2-8.4,26.35-10.89.71-.2,2.16-.56,2.88-.73,0,0,.8,0,.8,0h0Z"/>
  <g>
    <g>
      <ellipse class="cls-2" cx="672.23" cy="339.43" rx="9.56" ry="13.18"/>
      <ellipse class="cls-10" cx="672.23" cy="335.81" rx="6.94" ry="9.56"/>
      <ellipse class="cls-7" cx="668.25" cy="332.96" rx="4.11" ry="4.37"/>
      <line class="cls-1" x1="661.95" y1="323.03" x2="665.3" y2="328.59"/>
      <line class="cls-1" x1="658.35" y1="329.87" x2="662.67" y2="332.96"/>
    </g>
    <ellipse class="cls-2" cx="712.26" cy="339.43" rx="9.56" ry="13.18"/>
    <ellipse class="cls-10" cx="712.26" cy="335.81" rx="6.94" ry="9.56"/>
    <ellipse class="cls-7" cx="708.72" cy="332.96" rx="4.11" ry="4.37"/>
    <line class="cls-1" x1="722.54" y1="323.03" x2="719.2" y2="328.59"/>
    <line class="cls-1" x1="726.14" y1="329.87" x2="721.82" y2="332.96"/>
  </g>
  <path class="cls-14" d="M688.89,368.48c.08,1.26.24,2.52.48,3.76.22,1.17.48,2.37,1,3.45,1.02,2.09,3.45,3.06,5.65,2.64.77-.15,1.28-1.12,1.05-1.85-.27-.82-1.02-1.21-1.85-1.05-.29.06.17,0-.02,0-.08,0-.16,0-.24.01-.1,0-.2,0-.3,0-.18,0-.07-.02.04,0-.19-.05-.39-.09-.58-.15-.16-.05-.09-.04.02.02-.09-.05-.18-.09-.27-.14s-.17-.1-.26-.16c-.14-.09-.08-.07.01.02-.13-.12-.25-.26-.39-.38-.13-.11.12.2-.03-.03-.04-.07-.09-.13-.13-.2-.06-.1-.11-.21-.17-.32-.11-.22.1.3-.04-.11-.29-.89-.49-1.8-.66-2.72-.05-.26-.09-.53-.13-.8-.02-.11-.03-.21-.05-.32.03.2-.01-.09-.02-.16-.06-.51-.11-1.02-.14-1.53-.05-.78-.65-1.54-1.5-1.5-.77.03-1.55.66-1.5,1.5h0Z"/>
  <g>
    <path class="cls-14" d="M688.3,367.11c1.05,1.53,1.88,3.16,2.42,4.93.58,1.89.71,4.05,2.63,5.13.94.53,2.27,1.07,3.21.28s.8-2.31.62-3.44c-.17-.99-.55-1.94-.93-2.86-.41-.99-.82-2-1.33-2.94-1.06-1.96-2.64-3.63-4.8-4.31-.71-.22-1.5.2-1.77.87s-.07,1.55.61,1.87c1.26.59,2.07,1.64,2.84,2.79.95,1.42,1.77,2.93,2.45,4.5l2.59-1.51c-.48-1.08-.96-2.16-1.44-3.24l-2.05,2.05c.09.04.17.08.25.13-.21-.15.02.11-.03,0-.05-.12.06.12.07.15.11.21-.06-.19.02.05.16.45.24.92.3,1.39.07.5.13,1,.16,1.51,0,.03,0,.33.01.34-.11-.05.1-.29.15-.37.01-.02.13-.08.12-.06,0-.01-.15.02-.28,0,.11.02-.07-.04-.15-.09-.15-.09-.21-.12-.4-.33-.18-.19.09.14-.08-.09-.09-.12-.16-.26-.24-.39-.09-.16-.13-.27-.21-.48-.4-1.16-.65-2.39-.95-3.58-.2-.78-1.07-1.26-1.85-1.05s-1.25,1.06-1.05,1.85c.42,1.63.69,3.47,1.55,4.94s2.65,2.62,4.4,2.12c.91-.26,1.69-.95,1.91-1.89s-.04-1.99-.17-2.91c-.2-1.45-.59-3.12-2.05-3.81s-2.67.67-2.05,2.05c.48,1.08.96,2.16,1.44,3.24.33.74,1.41.91,2.05.54.77-.45.86-1.31.54-2.05-.74-1.69-1.63-3.32-2.68-4.84-.97-1.41-2.1-2.79-3.69-3.53l-1.16,2.74c.71.22,1.31.65,1.88,1.28s1.07,1.49,1.48,2.36.82,1.82,1.16,2.75c.18.5.35,1.02.43,1.54.03.2.04.37.05.58,0,.13,0,.26-.01.4.01-.06.03-.12.05-.18l.54-.54.12-.05h.8c-.41-.06-.73-.2-1.02-.39-.19-.12-.35-.34-.43-.52-.37-.87-.47-1.87-.75-2.77-.62-2-1.54-3.92-2.73-5.64-.46-.67-1.32-.97-2.05-.54-.66.39-1,1.38-.54,2.05h0Z"/>
    <path class="cls-12" d="M689.92,364.04c4.56,2.11,7.48,6.88,7.25,11.84-.07,1.67,2.62,2.07,2.95.4.4-2.01.86-4.02,1.19-6.04.2-1.26-.37-2.01-1.09-2.96-.63-.83-1.27-1.67-1.9-2.5l-.9,2.2c.73-.12,1.47-.24,2.2-.36.33-.05.65-.11.98-.16.2-.03.42-.04.61-.1.23-.08.11.01.04-.02l-.66-.39.1.11-.39-.66c-.09-.17-.08-.28.03-.34-.06.13-.12.25-.18.37-.11.21-.24.42-.38.62-.27.38-.6.69-.95.99h2.12c-.25-.25.03,0,.02.07-.04-.18-.04-.18,0-.02,0-.16,0-.19,0-.08.01.03,0-.04.03-.04.06-.09.05-.08-.02.03-.05.05-.12.08-.19.09.75-.31,1.28-1,1.05-1.85-.19-.71-1.09-1.36-1.85-1.05-.98.4-1.69,1.09-1.94,2.15s.04,2.08.78,2.82c.61.61,1.5.53,2.12,0,1.22-1.04,3.34-3.65,1.86-5.23-.83-.89-1.96-.56-3.01-.38s-2.12.35-3.18.53c-.89.15-1.45,1.48-.9,2.2s1.11,1.46,1.67,2.19c.26.35.53.69.79,1.04.11.14.23.4.2.08.02.16-.08.42-.1.57-.35,1.77-.7,3.54-1.05,5.3l2.95.4c.27-5.96-3.31-11.92-8.74-14.43-.74-.34-1.62-.21-2.05.54-.38.65-.2,1.71.54,2.05h0Z"/>
    <path class="cls-12" d="M696.82,364.65c-1.02-.34-1.86-.96-2.52-1.81l-.61.79c1.36.88,2.94,1.32,4.57,1.27.34-.01.67-.43.43-.75-.99-1.35-2.92-.77-4.34-1.01-1.86-.32-3.55-1.23-4.86-2.58-.28-.29-.72-.12-.84.22-.32.93-.44,1.89-.34,2.87.04.36.4.64.75.43,2.84-1.72,6.12.6,8.97,1.06s5.42-.67,7.02-2.94l-.86-.5c-.64,1.29-1.28,2.58-1.92,3.88l.91.39c.26-.7.56-1.4.79-2.11.15-.45.2-.93-.13-1.31-.74-.85-1.85-.3-2.45.4-.38.44.09,1.02.61.79.68-.31.33,1.49.29,1.7-.15.74-.31,1.47-.49,2.2-.35,1.42-.77,2.82-1.25,4.2l.96.27c.19-.92.5-1.78.95-2.6l-.86-.5c-.82,1.91-1.64,3.83-2.47,5.74l.93.25.25-2.56c.05-.56-.88-.69-.98-.13-.36,1.97-1.2,3.8-2.49,5.34l.84.49c.23-1.68.68-3.33,1.38-4.88.26-.58-.6-1.09-.86-.5-.73,1.64-1.24,3.34-1.48,5.12-.06.43.47.92.84.49,1.4-1.67,2.36-3.64,2.75-5.78l-.98-.13-.25,2.56c-.05.48.74.7.93.25.82-1.91,1.64-3.83,2.47-5.74.25-.57-.55-1.09-.86-.5-.49.9-.84,1.84-1.05,2.84-.13.63.75.88.96.27.71-2.05,1.28-4.15,1.71-6.28.16-.77.42-1.71-.03-2.43-.38-.6-1.08-.8-1.71-.51l.61.79c.17-.2.43-.55.73-.54.43.02.17.5.08.72-.23.62-.47,1.25-.71,1.87-.2.53.66.89.91.39.64-1.29,1.28-2.58,1.92-3.88.29-.58-.49-1.03-.86-.5-.79,1.13-1.97,1.96-3.3,2.34-1.45.41-2.89.16-4.31-.28-2.57-.8-5.45-2.09-8.01-.53l.75.43c-.09-.9,0-1.75.3-2.6l-.84.22c1.19,1.24,2.68,2.15,4.33,2.62.8.23,1.65.36,2.48.37.65,0,1.78-.21,2.23.4l.43-.75c-1.46.05-2.83-.34-4.06-1.13-.52-.33-.93.37-.61.79.76.98,1.79,1.68,2.96,2.07.61.2.87-.76.27-.96h0Z"/>
    <path class="cls-6" d="M705.71,359.3c-1.2,2.28-3.71,3.44-6.19,3.67-1.43.13-2.88.03-4.29-.21-1.11-.19-2.22-.47-3.23-.96-1.14-.55-2.13-1.35-2.72-2.48-.23-.43-.87-.05-.65.38,1.18,2.23,3.67,3.27,6.04,3.72,2.84.54,6,.62,8.62-.76,1.29-.68,2.4-1.69,3.08-2.99.23-.43-.42-.81-.65-.38h0Z"/>
    <path class="cls-6" d="M688.18,359.02c-.03,3.46-.19,6.94-.05,10.39.12,2.88.72,5.92,2.91,7.97,1.9,1.79,4.62,2.44,6.94,1.03,2.58-1.57,3.56-4.55,4.36-7.29,1.09-3.7,2.38-7.33,3.91-10.87.19-.44-.46-.82-.65-.38-1.24,2.86-2.35,5.78-3.29,8.76-.87,2.73-1.39,5.91-3.42,8.07-.87.92-2.01,1.64-3.3,1.75s-2.5-.38-3.5-1.15c-2.31-1.77-3.03-4.67-3.19-7.45-.1-1.7-.04-3.41-.03-5.12l.05-5.71c0-.48-.75-.48-.75,0h0Z"/>
  </g>
  <path class="cls-13" d="M693.67,402.24c-4.15-2.31-8.04-6.34-9.02-10.85-.35-1.81-.69-3.62.51-5.42,1.82-2.65,5.25-4.29,8.51-5.42,0,0,1,0,1,0,1.88.63,3.1,1.22,4.6,2.03,3.76,2.15,5.55,4.72,4.42,8.81-.69,3.28-3.16,6.59-5.99,8.81-.98.72-1.85,1.39-3.03,2.03,0,0-1,0-1,0h0Z"/>
  <path class="cls-13" d="M656.37,391.01c8.09-11.5,25.47-16.13,36.56-6.12,0,0,.17.99.17.99-1.2,2.17-2.52,3.67-3.86,4.99-7.3,7.17-18.35,7.76-27.51,4.05-1.69-.72-3.4-1.57-5.19-2.92l-.17-.99h0Z"/>
  <path class="cls-11" d="M679.55,398.23c-8.34,4.69-17.83,3.63-24.44-2.89-6.39-5.29-13.01-9.78-18.88-15.79,0,0,.4-.92.4-.92,8.39.15,16.21,1.87,24.44,2.89,2.05.21,4.08.46,5.97,1.06,6.64,2.35,10.99,7.56,12.91,14.73,0,0-.4.92-.4.92h0Z"/>
  <path class="cls-8" d="M663.94,391.51c-4.99,4.41-12.32,6.66-16.64.48-3.82-4.21-7.83-7.59-11.08-12.42,0,0,.4-.92.4-.92,5.74-.95,10.95-.37,16.64-.48,1.4-.07,2.78-.1,4.02.21,5,1.5,6.81,7.2,7.06,12.21,0,0-.4.92-.4.92h0Z"/>
  <g>
    <circle class="cls-8" cx="741.56" cy="411.11" r="11.63"/>
    <path class="cls-11" d="M699.85,391.59c8.43-4.52,17.89-3.28,24.38,3.37,6.29,5.41,12.81,10.04,18.56,16.16,0,0-.41.91-.41.91-8.39-.31-16.17-2.19-24.38-3.37-2.04-.25-4.07-.54-5.94-1.17-6.59-2.48-10.84-7.77-12.62-14.98,0,0,.41-.91.41-.91h0Z"/>
    <path class="cls-8" d="M715.33,398.63c5.07-4.31,12.45-6.42,16.64-.15,3.74,4.28,7.67,7.74,10.83,12.64,0,0-.41.91-.41.91-5.76.84-10.96.15-16.64.15-1.4.04-2.78.05-4.01-.29-4.97-1.6-6.67-7.34-6.82-12.35,0,0,.41-.91.41-.91h0Z"/>
  </g>
  <circle class="cls-5" cx="668.48" cy="362.64" r="3.88"/>
  <path class="cls-11" d="M693.51,386.47c18.02,8.61,33.94,21.66,37,39.92.25,1.66.37,3.32.38,4.99.02.55-.32,1.11-1.15,1.66-3.7,2.31-10.41,3.29-15.3,4.16-3.84.66-8.52,1.23-12.4,1.66-2.33.3-6.15.6-8.53.83-.62.08-4.83-.36-5.54-.42-2.22-.18-5.43-.59-7.67-.83-4.31-.53-9.26-1.3-13.55-2.08-4.08-.9-7.7-1.61-10.47-3.33-.83-.55-1.17-1.11-1.15-1.66.01-1.67.13-3.33.38-4.99,1.72-10.55,7.48-18.85,16.21-26.62,5.26-4.44,11.21-8.87,20.79-13.31h1Z"/>
  <path class="cls-13" d="M733.76,391.99c-11.39,8.23-29.34,6.95-36.56-6.12,0,0,.17-.99.17-.99,1.84-1.66,3.58-2.65,5.28-3.46,9.24-4.4,19.88-1.36,27.33,5.13,1.36,1.23,2.7,2.59,3.95,4.45l-.17.99h0Z"/>
  <path class="cls-9" d="M693.51,405.24c2.08.62,4.49,1.4,6.52,2.15,9.12,3.45,18.98,7.95,25.6,15.08,3.24,3.6,4.8,6.73,5.21,10.77-.03.56.26,1.16-.21,1.62-.28.21-.51.38-.9.54-2.04.83-4.73,1.29-6.97,1.62-4.39.71-9.81,1.29-14.23,1.62-4.86.35-11.2.99-16.03,1.08-5.7-.29-12.71-.9-18.42-1.35-3.13-.33-7.74-.81-10.85-1.35,0,0-1.76-.27-1.76-.27l-.44-.07c-.71-.13-1.52-.34-2.2-.47-1.06-.29-2.26-.57-3.08-1.08-.35-.17-.65-.48-.64-.81,0-1.09.13-2.16.38-3.23,2.79-10.73,15.28-17.19,24.98-21.54,2.08-.81,6.52-2.61,8.61-3.23.84-.29,2.55-.83,3.41-1.08,0,0,1,0,1,0h0Z"/>
  <polyline class="cls-3" points="701.69 350.45 697.25 354.95 693.28 350.28"/>
</svg>